<svg width="50" height="50" viewBox="0 0 50 50" fill="none" xmlns="http://www.w3.org/2000/svg">
<rect x="1" y="1" width="48" height="48" rx="24" stroke="#FF9000" stroke-width="2"/>
<path d="M28.75 31.9121L33.7493 37.7502L31.1887 34.624M31.1887 34.624L28.75 37.7502M31.1887 34.624L33.7493 31.9121" stroke="#FF9000" stroke-width="2" stroke-linecap="round" stroke-linejoin="round"/>
<path d="M25.2007 23.5875C25.0757 23.575 24.9257 23.575 24.7882 23.5875C21.8132 23.4875 19.4507 21.05 19.4507 18.05C19.4382 14.9875 21.9257 12.5 24.9882 12.5C28.0507 12.5 30.5382 14.9875 30.5382 18.05C30.5382 21.05 28.1632 23.4875 25.2007 23.5875Z" stroke="#FF9000" stroke-width="2" stroke-linecap="round" stroke-linejoin="round"/>
<path d="M24.9863 37.2621C22.7113 37.2621 20.4488 36.6871 18.7238 35.5371C15.6988 33.5121 15.6988 30.2121 18.7238 28.1996C22.1613 25.8996 27.7988 25.8996 31.2363 28.1996" stroke="#FF9000" stroke-width="2" stroke-linecap="round" stroke-linejoin="round"/>
</svg>
