<svg width="50" height="50" viewBox="0 0 50 50" fill="none" xmlns="http://www.w3.org/2000/svg">
<rect x="1" y="1" width="48" height="48" rx="24" stroke="#FF9000" stroke-width="2"/>
<circle cx="25.4831" cy="19.6572" r="3.65724" stroke="#FF9000" stroke-width="2" stroke-linecap="round"/>
<path d="M28.4215 17.4405C28.7064 16.947 29.1312 16.5491 29.6423 16.2971C30.1533 16.0451 30.7276 15.9503 31.2926 16.0246C31.8575 16.099 32.3877 16.3393 32.8161 16.715C33.2445 17.0907 33.5519 17.585 33.6994 18.1354C33.8469 18.6858 33.8278 19.2675 33.6447 19.8071C33.4615 20.3467 33.1224 20.8198 32.6704 21.1667C32.2183 21.5136 31.6735 21.7186 31.1049 21.7559C30.5364 21.7932 29.9695 21.661 29.476 21.3761" stroke="#FF9000" stroke-width="2"/>
<path d="M22.5447 17.4405C22.2598 16.947 21.8349 16.5491 21.3239 16.2971C20.8128 16.0451 20.2385 15.9503 19.6736 16.0246C19.1087 16.099 18.5785 16.3393 18.15 16.715C17.7216 17.0907 17.4143 17.585 17.2668 18.1354C17.1193 18.6858 17.1383 19.2675 17.3215 19.8071C17.5047 20.3467 17.8437 20.8198 18.2958 21.1667C18.7478 21.5136 19.2926 21.7186 19.8612 21.7559C20.4298 21.7932 20.9967 21.661 21.4902 21.3761" stroke="#FF9000" stroke-width="2"/>
<path d="M25.4831 26.6431C32.2907 26.6431 33.6706 32.5643 33.9502 34.9646C34.0142 35.5132 33.5736 35.9575 33.0213 35.9575H17.9448C17.3925 35.9575 16.952 35.5132 17.0159 34.9646C17.2956 32.5643 18.6754 26.6431 25.4831 26.6431Z" stroke="#FF9000" stroke-width="2" stroke-linecap="round"/>
<path d="M36.9468 31.7662L37.9259 31.5628V31.5628L36.9468 31.7662ZM27.1707 26.7767L26.4322 26.1025L25.1914 27.4615L27.0068 27.7632L27.1707 26.7767ZM33.5267 32.8529L32.5661 33.1308L32.775 33.8529H33.5267V32.8529ZM30.9166 26.0908C32.5577 26.0908 33.6792 26.9613 34.491 28.1815C35.3201 29.4275 35.7563 30.9514 35.9677 31.9695L37.9259 31.5628C37.6938 30.445 37.1925 28.6312 36.1561 27.0736C35.1026 25.4901 33.4307 24.0908 30.9166 24.0908V26.0908ZM27.9092 27.451C28.6512 26.6382 29.6094 26.0908 30.9166 26.0908V24.0908C28.9535 24.0908 27.4849 24.9495 26.4322 26.1025L27.9092 27.451ZM27.0068 27.7632C30.4552 28.3362 31.9218 30.904 32.5661 33.1308L34.4873 32.575C33.7449 30.009 31.8818 26.5458 27.3346 25.7903L27.0068 27.7632ZM36.0213 31.8529H33.5267V33.8529H36.0213V31.8529ZM35.9677 31.9695C35.9658 31.9605 35.9648 31.9417 35.9709 31.9192C35.9766 31.8981 35.9861 31.8824 35.9949 31.8723C36.0124 31.8521 36.0268 31.8529 36.0213 31.8529V33.8529C37.1819 33.8529 38.1881 32.8251 37.9259 31.5628L35.9677 31.9695Z" fill="#FF9000"/>
<path d="M23.7956 26.7767L23.9595 27.7632L25.7749 27.4615L24.5341 26.1025L23.7956 26.7767ZM14.0194 31.7662L14.9985 31.9695V31.9695L14.0194 31.7662ZM17.4396 32.8529V33.8529H18.1913L18.4002 33.1308L17.4396 32.8529ZM20.0496 26.0908C21.3569 26.0908 22.315 26.6382 23.0571 27.451L24.5341 26.1025C23.4814 24.9495 22.0128 24.0908 20.0496 24.0908V26.0908ZM14.9985 31.9695C15.21 30.9514 15.6462 29.4275 16.4753 28.1815C17.2871 26.9613 18.4085 26.0908 20.0496 26.0908V24.0908C17.5356 24.0908 15.8637 25.4901 14.8101 27.0736C13.7738 28.6312 13.2725 30.445 13.0403 31.5628L14.9985 31.9695ZM14.945 31.8529C14.9394 31.8529 14.9539 31.8521 14.9713 31.8723C14.9801 31.8824 14.9897 31.8981 14.9954 31.9192C15.0015 31.9417 15.0004 31.9605 14.9985 31.9695L13.0403 31.5628C12.7782 32.8251 13.7844 33.8529 14.945 33.8529V31.8529ZM17.4396 31.8529H14.945V33.8529H17.4396V31.8529ZM18.4002 33.1308C19.0445 30.904 20.5111 28.3362 23.9595 27.7632L23.6317 25.7903C19.0845 26.5459 17.2214 30.009 16.479 32.575L18.4002 33.1308Z" fill="#FF9000"/>
</svg>
