<svg width="50" height="50" viewBox="0 0 50 50" fill="none" xmlns="http://www.w3.org/2000/svg">
<rect x="1" y="1" width="48" height="48" rx="24" stroke="#FF9000" stroke-width="2"/>
<path d="M23.1127 12.7882L16.8752 15.1382C15.4377 15.6757 14.2627 17.3757 14.2627 18.9007V28.1882C14.2627 29.6632 15.2377 31.6007 16.4252 32.4882L21.8002 36.5007C23.5627 37.8257 26.4627 37.8257 28.2252 36.5007L33.6002 32.4882C34.7877 31.6007 35.7627 29.6632 35.7627 28.1882V18.9007C35.7627 17.3632 34.5877 15.6632 33.1502 15.1257L26.9127 12.7882C25.8502 12.4007 24.1502 12.4007 23.1127 12.7882Z" stroke="#FF9000" stroke-width="2" stroke-linecap="round" stroke-linejoin="round"/>
<circle cx="27.7942" cy="27.232" r="2" transform="rotate(-150 27.7942 27.232)" stroke="#FF9000" stroke-width="2"/>
<path d="M26.0622 26.2319L22.5981 24.2319M21 20.9999L20.075 22.602C20.0336 22.6738 20.0582 22.7655 20.1299 22.8069L22.5981 24.2319M22.5981 24.2319L23.5981 22.4999" stroke="#FF9000" stroke-width="2" stroke-linecap="round"/>
</svg>
