<svg width="18" height="18" viewBox="0 0 18 18" fill="none" xmlns="http://www.w3.org/2000/svg">
<path fill-rule="evenodd" clip-rule="evenodd" d="M5.60752 0H5.01715C3.56494 0 2.83883 0 2.30416 0.403303C1.76949 0.806605 1.57001 1.50478 1.17106 2.90112L0.571377 5H4.67002L5.60752 0ZM0.11731 6.92418C0.119609 6.94086 0.122459 6.95744 0.125878 6.97399C0.175602 7.21469 0.337913 7.41307 0.662533 7.80983L0.662536 7.80983L6.40843 14.8326L4.69505 7H0.499949C0.364414 7 0.235177 6.97304 0.11731 6.92418ZM11.5915 14.8326L17.3374 7.80983C17.662 7.41307 17.8243 7.21469 17.874 6.97399C17.8774 6.95744 17.8803 6.94086 17.8826 6.92418C17.7647 6.97304 17.6355 7 17.4999 7H13.3048L11.5915 14.8326ZM17.4285 5L16.8288 2.90112C16.4299 1.50478 16.2304 0.806605 15.6957 0.403303C15.1611 0 14.435 0 12.9827 0H12.3924L13.3299 5H17.4285ZM10.3575 0H7.64237L6.70487 5H11.295L10.3575 0ZM8.99995 17.3205L6.74234 7H11.2576L8.99995 17.3205Z" fill="#222222"/>
</svg>
