<svg width="28" height="32" viewBox="0 0 28 32" fill="none" xmlns="http://www.w3.org/2000/svg">
<path fill-rule="evenodd" clip-rule="evenodd" d="M0 2C0 0.895431 0.895431 0 2 0H18.3431C19.404 0 20.4214 0.421427 21.1716 1.17157L26.8284 6.82843C27.5786 7.57857 28 8.59599 28 9.65685V30C28 31.1046 27.1046 32 26 32H2C0.895431 32 0 31.1046 0 30V2ZM4 25C4 24.4477 4.44772 24 5 24H23C23.5523 24 24 24.4477 24 25C24 25.5523 23.5523 26 23 26H5C4.44772 26 4 25.5523 4 25ZM5 19C4.44772 19 4 19.4477 4 20C4 20.5523 4.44772 21 5 21H23C23.5523 21 24 20.5523 24 20C24 19.4477 23.5523 19 23 19H5ZM4 15C4 14.4477 4.44772 14 5 14H23C23.5523 14 24 14.4477 24 15C24 15.5523 23.5523 16 23 16H5C4.44772 16 4 15.5523 4 15ZM5 9C4.44772 9 4 9.44771 4 10C4 10.5523 4.44772 11 5 11H17C17.5523 11 18 10.5523 18 10C18 9.44771 17.5523 9 17 9H5Z" fill="#563797"/>
</svg>
