<svg width="18" height="18" viewBox="0 0 18 18" fill="none" xmlns="http://www.w3.org/2000/svg">
<path fill-rule="evenodd" clip-rule="evenodd" d="M0 4C0 2.59987 0 1.8998 0.272484 1.36502C0.512167 0.894619 0.894619 0.512167 1.36502 0.272484C1.8998 0 2.59987 0 4 0H14C15.4001 0 16.1002 0 16.635 0.272484C17.1054 0.512167 17.4878 0.894619 17.7275 1.36502C18 1.8998 18 2.59987 18 4V14C18 15.4001 18 16.1002 17.7275 16.635C17.4878 17.1054 17.1054 17.4878 16.635 17.7275C16.1002 18 15.4001 18 14 18H4H3.99997C2.59986 18 1.8998 18 1.36502 17.7275C0.894619 17.4878 0.512167 17.1054 0.272484 16.635C0 16.1002 0 15.4001 0 14V4ZM7.82929 8C7.41746 6.83481 6.30622 6 5 6C3.34315 6 2 7.34315 2 9C2 10.6569 3.34315 12 5 12C6.30622 12 7.41746 11.1652 7.82929 10H10V11C10 11.5523 10.4477 12 11 12C11.5523 12 12 11.5523 12 11V10H13V11C13 11.5523 13.4477 12 14 12C14.5523 12 15 11.5523 15 11V9.15C15 8.51487 14.4851 8 13.85 8H11H7.82929ZM6 9C6 8.44772 5.55228 8 5 8C4.44772 8 4 8.44772 4 9C4 9.55228 4.44772 10 5 10C5.55228 10 6 9.55228 6 9Z" fill="#222222"/>
</svg>
