<svg width="30" height="32" viewBox="0 0 30 32" fill="none" xmlns="http://www.w3.org/2000/svg">
<path d="M21.9995 7C21.9995 10.866 18.8655 14 14.9995 14C11.1335 14 7.99954 10.866 7.99954 7C7.99954 3.13401 11.1335 0 14.9995 0C18.8655 0 21.9995 3.13401 21.9995 7Z" fill="#563797"/>
<path d="M1.84653 19.6867C2.41549 15.8936 6.52107 13.7608 9.95168 15.4761C13.1294 17.0649 16.8697 17.0649 20.0474 15.4761C23.478 13.7608 27.5836 15.8936 28.1525 19.6867L28.9917 25.2813C29.5223 28.8187 26.7827 32 23.2057 32H6.79337C3.2164 32 0.476728 28.8187 1.00734 25.2813L1.84653 19.6867Z" fill="#563797"/>
</svg>
