<svg width="25" height="26" viewBox="0 0 25 26" fill="none" xmlns="http://www.w3.org/2000/svg">
<path d="M13.4511 0.423401C14.3974 0.423401 15.2542 0.948939 15.7273 1.72473C15.9575 2.10012 16.1109 2.56309 16.0726 3.05109C16.047 3.42648 16.1621 3.80186 16.3667 4.15222C17.0189 5.21581 18.4639 5.61622 19.5892 5.01561C20.8551 4.28986 22.4536 4.72781 23.1825 5.96658L24.0392 7.44309C24.7809 8.68186 24.3717 10.271 23.093 10.9842C22.006 11.6224 21.6224 13.0363 22.2746 14.1124C22.4792 14.4503 22.7093 14.7381 23.0674 14.9132C23.515 15.151 23.8602 15.5264 24.1032 15.9018C24.5763 16.6776 24.538 17.6285 24.0776 18.4669L23.1825 19.9684C22.7093 20.7692 21.827 21.2698 20.9191 21.2698C20.4715 21.2698 19.9728 21.1446 19.5636 20.8944C19.2311 20.6817 18.8475 20.6066 18.4383 20.6066C17.1723 20.6066 16.1109 21.6451 16.0726 22.8839C16.0726 24.3229 14.8961 25.449 13.4256 25.449H11.6865C10.2031 25.449 9.02664 24.3229 9.02664 22.8839C9.00106 21.6451 7.93969 20.6066 6.67372 20.6066C6.25173 20.6066 5.86811 20.6817 5.54842 20.8944C5.13922 21.1446 4.62771 21.2698 4.19293 21.2698C3.27223 21.2698 2.38989 20.7692 1.91675 19.9684L1.03441 18.4669C0.561266 17.6536 0.53569 16.6776 1.00883 15.9018C1.21343 15.5264 1.59706 15.151 2.03184 14.9132C2.38989 14.7381 2.62006 14.4503 2.83745 14.1124C3.47683 13.0363 3.0932 11.6224 2.00626 10.9842C0.740292 10.271 0.331089 8.68186 1.05998 7.44309L1.91675 5.96658C2.65843 4.72781 4.24409 4.28986 5.52284 5.01561C6.63536 5.61622 8.08036 5.21581 8.73252 4.15222C8.93712 3.80186 9.05221 3.42648 9.02664 3.05109C9.00106 2.56309 9.14172 2.10012 9.38469 1.72473C9.85783 0.948939 10.7146 0.448427 11.6481 0.423401H13.4511ZM12.5688 9.40761C10.5611 9.40761 8.93712 10.9842 8.93712 12.9487C8.93712 14.9132 10.5611 16.4773 12.5688 16.4773C14.5764 16.4773 16.1621 14.9132 16.1621 12.9487C16.1621 10.9842 14.5764 9.40761 12.5688 9.40761Z" fill="#EFF2F4"/>
</svg>
