<svg width="18" height="15" viewBox="0 0 18 15" fill="none" xmlns="http://www.w3.org/2000/svg">
<circle cx="9" cy="4" r="4" fill="#33363F"/>
<circle cx="14" cy="4" r="3" fill="#33363F"/>
<circle cx="4" cy="4" r="3" fill="#33363F"/>
<path fill-rule="evenodd" clip-rule="evenodd" d="M14.5685 13H16.895C17.4867 13 17.9403 12.4901 17.7966 11.9162C17.4284 10.4458 16.448 8 14 8C13.114 8 12.4201 8.32047 11.8781 8.79914C13.3858 9.77735 14.1654 11.4902 14.5685 13Z" fill="#33363F"/>
<path fill-rule="evenodd" clip-rule="evenodd" d="M6.12197 8.79913C5.57989 8.32046 4.88609 8 4 8C1.55208 8 0.571662 10.4458 0.20343 11.9162C0.0597096 12.4901 0.513354 13 1.10498 13H3.43155C3.83464 11.4902 4.61422 9.77734 6.12197 8.79913Z" fill="#33363F"/>
<path d="M9 9C12.7087 9 13.6665 12.301 13.9139 14.0061C13.9932 14.5526 13.5523 15 13 15H5C4.44772 15 4.00684 14.5526 4.08614 14.0061C4.33351 12.301 5.29134 9 9 9Z" fill="#33363F"/>
</svg>
