<svg width="20" height="20" viewBox="0 0 20 20" fill="none" xmlns="http://www.w3.org/2000/svg">
<path d="M0 7C0 5.11438 0 4.17157 0.585786 3.58579C1.17157 3 2.11438 3 4 3H16C17.8856 3 18.8284 3 19.4142 3.58579C20 4.17157 20 5.11438 20 7C20 7.4714 20 7.70711 19.8536 7.85355C19.7071 8 19.4714 8 19 8H1C0.528596 8 0.292893 8 0.146447 7.85355C0 7.70711 0 7.4714 0 7Z" fill="#222222"/>
<path d="M0 16C0 17.8856 0 18.8284 0.585786 19.4142C1.17157 20 2.11438 20 4 20H16C17.8856 20 18.8284 20 19.4142 19.4142C20 18.8284 20 17.8856 20 16V11C20 10.5286 20 10.2929 19.8536 10.1464C19.7071 10 19.4714 10 19 10H1C0.528596 10 0.292893 10 0.146447 10.1464C0 10.2929 0 10.5286 0 11V16Z" fill="#222222"/>
<path d="M5 1L5 4" stroke="#222222" stroke-width="2" stroke-linecap="round"/>
<path d="M15 1L15 4" stroke="#222222" stroke-width="2" stroke-linecap="round"/>
</svg>
