<svg width="32" height="32" viewBox="0 0 32 32" fill="none" xmlns="http://www.w3.org/2000/svg">
<g clip-path="url(#clip0_2390_748)">
<path d="M2 0C0.895431 0 0 0.89543 0 2V13C0 14.1046 0.89543 15 2 15H13C14.1046 15 15 14.1046 15 13V2C15 0.895431 14.1046 0 13 0H2Z" fill="#8A6ACB"/>
<path d="M2 17C0.895431 17 0 17.8954 0 19V30C0 31.1046 0.89543 32 2 32H13C14.1046 32 15 31.1046 15 30V19C15 17.8954 14.1046 17 13 17H2Z" fill="#8A6ACB"/>
<path d="M17 2C17 0.89543 17.8954 0 19 0H30C31.1046 0 32 0.895431 32 2V13C32 14.1046 31.1046 15 30 15H19C17.8954 15 17 14.1046 17 13V2Z" fill="#8A6ACB"/>
<path d="M19 17C17.8954 17 17 17.8954 17 19V30C17 31.1046 17.8954 32 19 32H30C31.1046 32 32 31.1046 32 30V19C32 17.8954 31.1046 17 30 17H19Z" fill="#8A6ACB"/>
</g>
<defs>
<clipPath id="clip0_2390_748">
<rect width="32" height="32" fill="white"/>
</clipPath>
</defs>
</svg>
