<svg width="16" height="24" viewBox="0 0 16 24" fill="none" xmlns="http://www.w3.org/2000/svg">
<path d="M10 15L6 19L10 23" stroke="#33363F" stroke-width="2"/>
<path d="M14.0622 8.5C14.6766 9.56413 15 10.7712 15 12C15 13.2288 14.6766 14.4359 14.0622 15.5C13.4478 16.5641 12.5641 17.4478 11.5 18.0622C10.4359 18.6766 9.22876 19 8 19" stroke="#33363F" stroke-width="2" stroke-linecap="round"/>
<path d="M6 9L10 5L6 1" stroke="#33363F" stroke-width="2"/>
<path d="M1.93782 15.5C1.32344 14.4359 1 13.2288 1 12C1 10.7712 1.32344 9.56413 1.93782 8.5C2.5522 7.43587 3.43587 6.5522 4.5 5.93782C5.56413 5.32344 6.77124 5 8 5" stroke="#33363F" stroke-width="2" stroke-linecap="round"/>
</svg>
