<svg width="253" height="65" viewBox="0 0 253 65" fill="none" xmlns="http://www.w3.org/2000/svg">
<path d="M180.068 64.9998V0.0856934H193.127V64.9998H180.068Z" fill="#F7A600"/>
<path d="M27.9725 64.9141H0V0H26.8385C39.8969 0 47.4914 7.1134 47.4914 18.2474C47.4914 25.4639 42.6117 30.1031 39.244 31.6495C43.2646 33.4708 48.4536 37.5601 48.4536 46.2543C48.4536 58.3505 39.8969 64.9141 27.9725 64.9141ZM25.8419 11.3058H13.0928V26.2543H25.8419C31.3746 26.2543 34.4673 23.2302 34.4673 18.7629C34.4673 14.2955 31.3746 11.3058 25.8419 11.3058ZM26.6667 37.6289H13.0584V53.5739H26.6667C32.5773 53.5739 35.3952 49.9313 35.3952 45.5326C35.3952 41.134 32.5773 37.6289 26.6667 37.6289Z" fill="#F7A600"/>
<path d="M88.2469 38.2818V64.9141H75.2916V38.2818L55.1885 0H69.3466L81.8208 26.1512L94.1232 0H108.281L88.2469 38.2818Z" fill="#F7A600"/>
<path d="M145.326 64.9141H117.354V0H144.192C157.25 0 164.845 7.1134 164.845 18.2474C164.845 25.4639 159.965 30.1031 156.597 31.6495C160.618 33.4708 165.807 37.5601 165.807 46.2543C165.773 58.3505 157.25 64.9141 145.326 64.9141ZM143.161 11.3058H130.412V26.2543H143.161C148.694 26.2543 151.786 23.2302 151.786 18.7629C151.786 14.2955 148.694 11.3058 143.161 11.3058ZM143.986 37.6289H130.378V53.5739H143.986C149.896 53.5739 152.714 49.9313 152.714 45.5326C152.714 41.134 149.931 37.6289 143.986 37.6289Z" fill="#F7A600"/>
<path d="M235.155 11.3058V64.9141H222.097V11.3058H204.674V0H252.612V11.3058H235.155Z" fill="#F7A600"/>
</svg>
