<svg width="232" height="55" viewBox="0 0 232 55" fill="none" xmlns="http://www.w3.org/2000/svg">
<path d="M31.1162 33.5487C36.6421 23.5415 42.3086 14.5402 46.6694 4.94405C49.6518 -1.62184 54.6894 0.436497 58.9652 0.697649C64.0553 1.00825 61.1857 5.66108 61.2475 8.0779C61.5952 21.7088 61.1301 35.3628 61.5597 48.9907C61.7235 54.1998 59.7224 54.8735 55.377 54.6526C51.5865 54.4594 48.4171 55.0095 48.9239 49.2719C49.5096 42.6334 49.0599 35.9022 49.0599 28.1789C43.9806 33.9489 41.6225 40.3804 38.1425 46.0809C34.8913 51.4059 27.7413 51.6625 24.6971 46.3776C21.3639 40.5906 18.0894 34.7679 13.5355 26.7541C13.5355 35.8465 13.1137 42.7848 13.6607 49.6459C14.1552 55.861 10.1838 54.2632 6.84753 54.6031C2.79581 55.0157 0.944576 54.1689 1.06047 49.3909C1.40043 35.2439 1.08984 21.0814 1.28146 6.92974C1.31082 4.80653 -0.657861 0.762524 3.22079 0.76716C7.22151 0.773341 12.2607 -2.18741 15.2693 3.95816C20.0612 13.7506 25.5331 23.2108 31.1162 33.5487Z" fill="#76FBB1"/>
<path d="M122.782 51.9645C129.435 43.5749 136.16 35.0939 142.665 26.8915C135.859 18.3312 129.119 9.85175 121.734 0.563887C124.165 0.563887 125.4 0.795953 126.514 0.527977C136.015 -1.75506 141.424 3.68678 146.122 10.6811C150.237 16.8087 152.632 17.2937 155.77 10.7964C160.781 0.420154 168.492 -1.0859 178.931 1.22708C173.124 8.62413 167.652 15.9449 161.769 22.9182C159.401 25.7253 159.104 27.4334 161.595 30.4261C167.735 37.7977 173.398 45.566 179.427 53.4032C167.494 57.342 160.544 51.3312 155.213 42.5659C151.878 37.0836 149.337 36.6958 146.111 42.4835C141.049 51.5648 133.747 55.9812 122.782 51.9645Z" fill="#76FBB1"/>
<path d="M69.4072 27.3757C69.4072 20.1312 69.5982 12.8805 69.3295 5.64682C69.1866 1.7776 70.0658 0.260039 74.3528 0.370322C86.5026 0.679425 98.6663 0.508564 110.825 0.457305C113.749 0.444879 116.388 -0.0211042 116.102 4.57506C115.844 8.70989 114.05 9.89661 110.272 9.83293C102.256 9.69935 94.2115 10.1669 86.223 9.66204C80.9015 9.32498 81.6284 12.5015 81.8862 15.4978C82.127 18.2952 79.8374 22.6118 85.9915 22.2964C92.958 21.9407 99.9711 22.4937 106.936 22.1116C111.173 21.8786 111.664 23.8124 111.352 27.1489C111.086 29.9929 112.534 33.4956 107.166 33.1772C100.464 32.7811 93.6974 33.4164 87.0012 32.9706C82.1503 32.6475 81.3752 34.7475 81.7744 38.7938C82.1068 42.1598 80.5364 46.0834 86.7713 45.6361C94.4927 45.0831 102.287 45.6438 110.043 45.4481C114.308 45.3394 116.017 46.8615 116.09 51.2744C116.173 56.4034 112.654 54.7352 110.28 54.7616C98.3821 54.8874 86.4793 54.6823 74.5827 54.8982C70.7352 54.9681 69.0857 54.1931 69.3031 49.878C69.679 42.3943 69.4072 34.878 69.4072 27.3757Z" fill="#76FBB1"/>
<path d="M212.668 54.6167C195.699 55.0765 187.523 47.047 183.241 36.7894C178.625 25.7291 182.514 12.4791 191.458 4.99069C199.793 -1.98617 218.763 -1.67422 227.579 6.09213C229.082 7.41684 232.883 8.72973 230.478 11.6334C228.432 14.1025 226.18 17.5118 221.584 15.0531C216.254 12.2026 210.78 9.90807 204.283 11.7414C196.655 13.8925 191.105 23.0353 193.351 30.7425C196.361 41.0711 203.895 45.6129 212.753 43.3035C216.858 42.2331 220.287 39.2318 225.036 39.7464C227.939 40.0613 229.727 41.485 230.893 43.4439C232.251 45.7237 229.492 46.7542 228.277 48.0287C223.33 53.224 216.711 54.0963 212.668 54.6167Z" fill="#76FBB1"/>
</svg>
