<svg width="250" height="70" viewBox="0 0 250 70" fill="none" xmlns="http://www.w3.org/2000/svg">
<path d="M73.1443 0H1.66232C1.22133 0 0.798655 0.163847 0.486789 0.455539C0.174922 0.747231 0 1.14283 0 1.55536V68.4414C0 68.854 0.175146 69.2502 0.486789 69.5419C0.798655 69.8332 1.22133 69.997 1.66232 69.997H73.1443C73.5857 69.997 74.008 69.8332 74.3203 69.5419C74.6319 69.25 74.8073 68.854 74.8073 68.4414V1.55536C74.8073 1.14283 74.6319 0.747231 74.3203 0.455539C74.0082 0.163847 73.5857 0 73.1443 0ZM49.8714 45.1094C49.8714 45.5219 49.6962 45.9175 49.3844 46.2092C49.0725 46.5009 48.6498 46.6647 48.2088 46.6647H26.5978C26.157 46.6647 25.7341 46.5009 25.4223 46.2092C25.1106 45.9175 24.9352 45.5219 24.9352 45.1094V24.8878C24.9352 24.4753 25.1104 24.0797 25.4223 23.788C25.7339 23.4963 26.1568 23.3325 26.5978 23.3325H48.2088C48.6496 23.3325 49.0725 23.4963 49.3844 23.788C49.6962 24.0797 49.8714 24.4753 49.8714 24.8878V45.1094Z" fill="#158AFE"/>
<path d="M222.789 23.3356H201.178C200.26 23.3356 199.516 24.0321 199.516 24.8912V45.1125C199.516 45.9717 200.26 46.6681 201.178 46.6681H222.789C223.707 46.6681 224.452 45.9717 224.452 45.1125V24.8912C224.452 24.0321 223.707 23.3356 222.789 23.3356Z" fill="#158AFE"/>
<path d="M197.859 0.000427246H176.248C175.33 0.000427246 174.586 0.696873 174.586 1.55599V21.7775C174.586 22.6366 175.33 23.3331 176.248 23.3331H197.859C198.777 23.3331 199.522 22.6366 199.522 21.7775V1.55599C199.522 0.696873 198.777 0.000427246 197.859 0.000427246Z" fill="#158AFE"/>
<path d="M247.738 0.000427246H226.127C225.21 0.000427246 224.465 0.696873 224.465 1.55599V21.7775C224.465 22.6366 225.209 23.3331 226.127 23.3331H247.738C248.657 23.3331 249.401 22.6366 249.401 21.7775V1.55599C249.401 0.696873 248.657 0.000427246 247.738 0.000427246Z" fill="#158AFE"/>
<path d="M197.859 46.6671H176.248C175.33 46.6671 174.586 47.3636 174.586 48.2225V68.4444C174.586 69.3033 175.33 70 176.248 70H197.859C198.777 70 199.522 69.3033 199.522 68.4444V48.2227C199.522 47.3636 198.777 46.6671 197.859 46.6671Z" fill="#158AFE"/>
<path d="M247.738 46.6671H226.127C225.21 46.6671 224.465 47.3636 224.465 48.2225V68.4444C224.465 69.3033 225.209 70 226.127 70H247.738C248.657 70 249.401 69.3033 249.401 68.4444V48.2227C249.401 47.3636 248.657 46.6671 247.738 46.6671Z" fill="#158AFE"/>
<path d="M160.426 0.000427246H138.815C137.897 0.000427246 137.152 0.696873 137.152 1.55599V21.7775C137.152 22.6366 137.897 23.3331 138.815 23.3331H160.426C161.344 23.3331 162.088 22.6366 162.088 21.7775V1.55599C162.088 0.696873 161.344 0.000427246 160.426 0.000427246Z" fill="#158AFE"/>
<path d="M160.426 46.6671H138.815C137.897 46.6671 137.152 47.3636 137.152 48.2225V68.4444C137.152 69.3033 137.897 70 138.815 70H160.426C161.344 70 162.088 69.3033 162.088 68.4444V48.2227C162.088 47.3636 161.344 46.6671 160.426 46.6671Z" fill="#158AFE"/>
<path d="M137.145 24.8703C137.145 24.4578 136.97 24.0622 136.658 23.7705C136.347 23.4788 135.924 23.315 135.483 23.315H112.209V1.55536C112.209 1.14283 112.034 0.747231 111.722 0.455539C111.411 0.163847 110.988 0 110.547 0H88.9364C88.495 0 88.0728 0.163847 87.7604 0.455539C87.4488 0.747231 87.2734 1.14283 87.2734 1.55536V68.4068C87.2734 68.8193 87.4488 69.2149 87.7604 69.5066C88.0725 69.7985 88.495 69.9622 88.9364 69.9622H110.547C110.988 69.9622 111.411 69.7983 111.722 69.5066C112.034 69.2149 112.209 68.8193 112.209 68.4068V46.6472H135.483C135.923 46.6472 136.346 46.4834 136.658 46.1917C136.97 45.9 137.145 45.5042 137.145 45.0917L137.145 24.8703Z" fill="#158AFE"/>
</svg>
