<svg width="17" height="18" viewBox="0 0 17 18" fill="none" xmlns="http://www.w3.org/2000/svg">
<path d="M4.85 2H2C1.44772 2 1 2.44771 1 3V9C1 9.55228 1.44772 10 2 10H4.85C4.93284 10 5 9.93284 5 9.85V2.15C5 2.06716 4.93284 2 4.85 2Z" stroke="#FF3737" stroke-width="2" stroke-linecap="round"/>
<path d="M5 10L6.83205 12.7481C6.94156 12.9123 7 13.1054 7 13.3028V16C7 16.5523 7.44772 17 8 17H9C10.1046 17 11 16.1046 11 15V10" stroke="#FF3737" stroke-width="2" stroke-linecap="round"/>
<path d="M9 10H13.7655C14.9575 10 15.8849 8.96387 15.7532 7.77914L15.1977 2.77914C15.0851 1.76627 14.229 1 13.2099 1H9.41421C9.149 1 8.89464 1.10536 8.70711 1.29289L8.29289 1.70711C8.10536 1.89464 7.851 2 7.58579 2H5" stroke="#FF3737" stroke-width="2" stroke-linecap="round"/>
</svg>
