<svg width="54" height="48" viewBox="0 0 54 48" fill="none" xmlns="http://www.w3.org/2000/svg">
<path d="M47.5817 6.27451H40.0549L36.3399 0.69804C36.1964 0.482975 36.002 0.306711 35.7739 0.184927C35.5458 0.0631439 35.2912 -0.000381495 35.0327 1.72359e-06H18.3007C18.0421 -0.000381495 17.7875 0.0631439 17.5594 0.184927C17.3314 0.306711 17.137 0.482975 16.9935 0.69804L13.2758 6.27451H5.75163C4.22621 6.27451 2.76325 6.88048 1.68461 7.95913C0.605974 9.03777 0 10.5007 0 12.0261V41.3072C0 42.8326 0.605974 44.2956 1.68461 45.3742C2.76325 46.4528 4.22621 47.0588 5.75163 47.0588H47.5817C49.1071 47.0588 50.5701 46.4528 51.6487 45.3742C52.7274 44.2956 53.3333 42.8326 53.3333 41.3072V12.0261C53.3333 10.5007 52.7274 9.03777 51.6487 7.95913C50.5701 6.88048 49.1071 6.27451 47.5817 6.27451ZM50.1961 41.3072C50.1961 42.0006 49.9206 42.6655 49.4303 43.1558C48.9401 43.6461 48.2751 43.9216 47.5817 43.9216H5.75163C5.05826 43.9216 4.39328 43.6461 3.90299 43.1558C3.4127 42.6655 3.13725 42.0006 3.13725 41.3072V12.0261C3.13725 11.3328 3.4127 10.6678 3.90299 10.1775C4.39328 9.68721 5.05826 9.41177 5.75163 9.41177H14.1176C14.3762 9.41215 14.6308 9.34862 14.8589 9.22684C15.0869 9.10506 15.2813 8.92879 15.4248 8.71373L19.1399 3.13726H34.1908L37.9085 8.71373C38.052 8.92879 38.2464 9.10506 38.4745 9.22684C38.7025 9.34862 38.9571 9.41215 39.2157 9.41177H47.5817C48.2751 9.41177 48.9401 9.68721 49.4303 10.1775C49.9206 10.6678 50.1961 11.3328 50.1961 12.0261V41.3072ZM38.6928 16.2092V22.4837C38.6928 22.8997 38.5275 23.2987 38.2334 23.5928C37.9392 23.887 37.5402 24.0523 37.1242 24.0523H30.8497C30.4336 24.0523 30.0347 23.887 29.7405 23.5928C29.4463 23.2987 29.281 22.8997 29.281 22.4837C29.281 22.0676 29.4463 21.6686 29.7405 21.3745C30.0347 21.0803 30.4336 20.915 30.8497 20.915H33.4641L32.9412 20.3686C31.4246 18.8672 29.4199 17.9593 27.2911 17.8097C25.1623 17.66 23.0503 18.2785 21.3386 19.5529C21.1739 19.6769 20.9865 19.7672 20.787 19.8187C20.5875 19.8702 20.3798 19.8819 20.1757 19.8531C19.9717 19.8244 19.7753 19.7557 19.5978 19.651C19.4203 19.5464 19.2651 19.4078 19.1412 19.2431C19.0172 19.0785 18.9269 18.8911 18.8754 18.6916C18.8239 18.492 18.8122 18.2843 18.841 18.0803C18.8698 17.8762 18.9384 17.6799 19.0431 17.5024C19.1478 17.3248 19.2864 17.1697 19.451 17.0458C21.7712 15.3183 24.6342 14.4808 27.5196 14.6857C30.405 14.8906 33.121 16.1241 35.1739 18.1621C35.1813 18.172 35.1901 18.1808 35.2 18.1882L35.5556 18.5621V16.2092C35.5556 15.7931 35.7208 15.3941 36.015 15.1C36.3092 14.8058 36.7082 14.6405 37.1242 14.6405C37.5402 14.6405 37.9392 14.8058 38.2334 15.1C38.5275 15.3941 38.6928 15.7931 38.6928 16.2092ZM34.1961 32C34.446 32.3325 34.5536 32.7506 34.4952 33.1625C34.4369 33.5743 34.2174 33.9461 33.885 34.1961C31.5652 35.9246 28.7019 36.7627 25.8162 36.5578C22.9305 36.3529 20.2144 35.1187 18.1621 33.0797L18.1359 33.0536L17.7778 32.6797V35.0327C17.7778 35.4487 17.6125 35.8477 17.3183 36.1419C17.0242 36.436 16.6252 36.6013 16.2091 36.6013C15.7931 36.6013 15.3941 36.436 15.1 36.1419C14.8058 35.8477 14.6405 35.4487 14.6405 35.0327V28.7582C14.6405 28.3421 14.8058 27.9432 15.1 27.649C15.3941 27.3548 15.7931 27.1895 16.2091 27.1895H22.4837C22.8997 27.1895 23.2987 27.3548 23.5928 27.649C23.887 27.9432 24.0523 28.3421 24.0523 28.7582C24.0523 29.1742 23.887 29.5732 23.5928 29.8674C23.2987 30.1615 22.8997 30.3268 22.4837 30.3268H19.8693L20.3922 30.8732C21.9088 32.3746 23.9134 33.2825 26.0422 33.4322C28.1711 33.5818 30.283 32.9633 31.9948 31.6889C32.1596 31.5643 32.3473 31.4736 32.5473 31.4218C32.7473 31.37 32.9555 31.3582 33.1601 31.3871C33.3646 31.416 33.5614 31.4851 33.7392 31.5902C33.917 31.6954 34.0722 31.8347 34.1961 32Z" fill="black"/>
</svg>
