<svg width="33" height="29" viewBox="0 0 33 29" fill="none" xmlns="http://www.w3.org/2000/svg">
<path opacity="0.9" fill-rule="evenodd" clip-rule="evenodd" d="M14.7724 1.96153C15.5442 0.638518 17.4558 0.638515 18.2276 1.96153L32.2455 25.9923C33.0233 27.3256 32.0615 29 30.5179 29H16.5H2.48208C0.938496 29 -0.0232469 27.3256 0.754519 25.9923L14.7724 1.96153ZM14 8H19V20H14V8ZM16.5 27C17.8807 27 19 25.8807 19 24.5C19 23.1193 17.8807 22 16.5 22C15.1193 22 14 23.1193 14 24.5C14 25.8807 15.1193 27 16.5 27Z" fill="#FF3737"/>
</svg>
