<svg width="15" height="14" viewBox="0 0 15 14" fill="none" xmlns="http://www.w3.org/2000/svg">
<path d="M7.62477 0.00988224C7.749 0.00332171 7.87408 0 7.99995 0C11.8659 0 14.9999 3.13401 14.9999 7C14.9999 10.866 11.8659 14 7.99995 14C6.67307 14 5.43243 13.6308 4.37512 12.9896C8.06668 12.7946 10.9999 9.73959 10.9999 5.99946C10.9999 3.46034 9.64805 1.23697 7.62477 0.00988224Z" fill="#222222"/>
<path d="M3.4 6.2L3.4 6.2C3.50137 6.50412 3.55206 6.65618 3.60276 6.7225C3.80288 6.98431 4.19712 6.98431 4.39724 6.7225C4.44794 6.65618 4.49863 6.50412 4.6 6.2L4.6 6.2C4.68177 5.95468 4.72266 5.83201 4.77555 5.72099C4.97291 5.30672 5.30672 4.97291 5.72099 4.77555C5.83201 4.72266 5.95468 4.68177 6.2 4.6L6.2 4.6C6.50412 4.49863 6.65618 4.44794 6.7225 4.39724C6.98431 4.19712 6.98431 3.80288 6.7225 3.60276C6.65618 3.55206 6.50412 3.50137 6.2 3.4L6.2 3.4C5.95468 3.31822 5.83201 3.27734 5.72099 3.22445C5.30672 3.02709 4.97291 2.69329 4.77555 2.27901C4.72266 2.16799 4.68177 2.04532 4.6 1.8C4.49863 1.49588 4.44794 1.34382 4.39724 1.2775C4.19712 1.01569 3.80288 1.01569 3.60276 1.2775C3.55206 1.34382 3.50137 1.49588 3.4 1.8C3.31823 2.04532 3.27734 2.16799 3.22445 2.27901C3.02709 2.69329 2.69329 3.02709 2.27901 3.22445C2.16799 3.27734 2.04532 3.31823 1.8 3.4C1.49588 3.50137 1.34382 3.55206 1.2775 3.60276C1.01569 3.80288 1.01569 4.19712 1.2775 4.39724C1.34382 4.44794 1.49588 4.49863 1.8 4.6C2.04532 4.68177 2.16799 4.72266 2.27901 4.77555C2.69329 4.97291 3.02709 5.30672 3.22445 5.72099C3.27734 5.83201 3.31822 5.95468 3.4 6.2Z" fill="#222222"/>
</svg>
