<svg width="14" height="18" viewBox="0 0 14 18" fill="none" xmlns="http://www.w3.org/2000/svg">
<path fill-rule="evenodd" clip-rule="evenodd" d="M2.08642 10.0691L0.383996 8.70715C0.13517 9.42538 0 10.1967 0 10.9996C0 14.8656 3.13401 17.9996 7 17.9996C10.866 17.9996 14 14.8656 14 10.9996C14 10.1967 13.8648 9.42538 13.616 8.70716L11.9136 10.0691C11.9703 10.3706 12 10.6816 12 10.9996C12 13.761 9.76143 15.9996 7 15.9996C4.23858 15.9996 2 13.761 2 10.9996C2 10.6816 2.02968 10.3706 2.08642 10.0691Z" fill="#222222"/>
<path d="M7 10L6.37531 10.7809L7 11.2806L7.62469 10.7809L7 10ZM8 1C8 0.447715 7.55229 2.42698e-07 7 2.18557e-07C6.44772 1.94416e-07 6 0.447715 6 1L8 1ZM1.37531 6.78087L6.37531 10.7809L7.62469 9.21913L2.6247 5.21913L1.37531 6.78087ZM7.62469 10.7809L12.6247 6.78087L11.3753 5.21913L6.37531 9.21913L7.62469 10.7809ZM8 10L8 1L6 1L6 10L8 10Z" fill="#222222"/>
</svg>
