<svg width="45" height="33" viewBox="0 0 45 33" fill="none" xmlns="http://www.w3.org/2000/svg">
<path fill-rule="evenodd" clip-rule="evenodd" d="M12.5 33C5.87256 33 0.5 27.6274 0.5 21C0.5 14.3726 5.87256 9 12.5 9C12.626 9 12.7515 9.00195 12.8765 9.00586C14.2065 3.82715 18.9062 0 24.5 0C31.1274 0 36.5 5.37256 36.5 12C36.5 12.1809 36.4961 12.3611 36.4883 12.54C36.4785 12.7578 36.4629 12.9739 36.4419 13.1885C41.0352 14.0923 44.5 18.1414 44.5 23C44.5 28.5229 40.0229 33 34.5 33H12.5ZM15.5 16L22.5 8L29.5 16H25.5V26H19.5V16H15.5Z" fill="#000000"/>
</svg>
