<svg width="52" height="45" viewBox="0 0 52 45" fill="none" xmlns="http://www.w3.org/2000/svg">
<path d="M12.3152 42.8081C12.2048 42.8081 12.0936 42.7767 11.9944 42.7112C5.27862 38.2609 1.87344 32.2807 1.87344 24.9377C1.87344 21.0994 2.92289 18.4241 4.05717 16.1044C4.19857 15.8158 4.54567 15.6972 4.83467 15.8375C5.12288 15.9785 5.24259 16.3263 5.10119 16.6146C3.86154 19.1504 3.03562 21.5364 3.03562 24.9377C3.03562 31.9642 6.17581 37.4613 12.6367 41.7427C12.904 41.9202 12.9773 42.2808 12.7998 42.5481C12.6883 42.717 12.5035 42.8081 12.3152 42.8081Z" fill="black"/>
<path d="M6.73438 13.1067C6.62204 13.1067 6.50892 13.0746 6.40897 13.0068C6.14283 12.827 6.07349 12.4656 6.25363 12.1998C7.17988 10.832 8.25295 9.55278 9.4438 8.39797C10.3484 7.52014 11.3277 6.70856 12.3543 5.98568C12.6154 5.80128 12.9787 5.86404 13.1639 6.12631C13.3487 6.38857 13.2856 6.75117 13.0233 6.93595C12.0467 7.62357 11.1142 8.39642 10.2534 9.23202C9.11916 10.3314 8.098 11.5494 7.21629 12.8514C7.10356 13.0172 6.92071 13.1067 6.73438 13.1067Z" fill="black"/>
<path d="M12.6998 42.8862C12.4182 42.8862 12.1435 42.8068 11.9056 42.6561C11.6345 42.4845 11.5535 42.1258 11.7251 41.8546C11.8963 41.5834 12.2554 41.5025 12.5266 41.6741C12.5793 41.707 12.637 41.7241 12.6994 41.7241C12.8245 41.7241 12.9039 41.6563 12.94 41.616C13.1546 41.3773 13.5214 41.3568 13.7605 41.5714C13.9995 41.7856 14.0196 42.1529 13.8054 42.3919C13.5242 42.7057 13.1209 42.8862 12.6998 42.8862Z" fill="black"/>
<path d="M13.5164 42.4246C13.3816 42.4246 13.2468 42.3781 13.1372 42.2836C12.8943 42.074 12.8668 41.7083 13.0756 41.465C13.1693 41.3561 15.4011 38.8063 17.9385 39.5556C18.2465 39.6462 18.422 39.9697 18.3313 40.2773C18.2407 40.5849 17.9172 40.7611 17.6096 40.6701C15.7908 40.1332 13.9747 42.2026 13.9565 42.2235C13.8414 42.3564 13.6791 42.4246 13.5164 42.4246Z" fill="black"/>
<path d="M19.105 29.0387C17.8169 29.0387 16.7686 27.9904 16.7686 26.7023C16.7686 25.4142 17.8169 24.366 19.105 24.366C20.3931 24.366 21.4413 25.4142 21.4413 26.7023C21.4413 27.9904 20.3931 29.0387 19.105 29.0387ZM19.105 25.5281C18.4573 25.5281 17.9308 26.055 17.9308 26.7023C17.9308 27.3497 18.4573 27.8765 19.105 27.8765C19.7527 27.8765 20.2792 27.3497 20.2792 26.7023C20.2792 26.055 19.7527 25.5281 19.105 25.5281Z" fill="black"/>
<path d="M3.92273 13.003C3.72438 13.003 3.53146 12.9015 3.42299 12.719C-0.349815 6.37356 0.0945228 3.27559 0.460995 2.23816C0.501284 2.11342 0.560942 1.97124 0.633385 1.82752C0.635322 1.82287 0.637646 1.81861 0.63997 1.81435C0.723259 1.63344 1.07462 0.963251 1.88853 0.500706C1.89396 0.497607 1.93115 0.475525 1.93696 0.472426C1.96795 0.452669 1.99739 0.435237 2.03032 0.418966C3.22542 -0.179941 6.90216 -0.970995 15.1699 4.63379C15.4356 4.81392 15.5046 5.17497 15.3244 5.44072C15.1443 5.70648 14.7836 5.77543 14.5175 5.59568C6.33618 0.049782 3.11114 1.17787 2.54749 1.45989C2.52695 1.47345 2.50371 1.48739 2.47737 1.50095C1.91643 1.82171 1.69949 2.28891 1.69755 2.29317C1.69329 2.30285 1.68709 2.31719 1.68089 2.32958C1.67818 2.33539 1.67547 2.34082 1.67276 2.34624C1.62588 2.43999 1.58831 2.52909 1.56119 2.61238C1.38376 3.1156 0.708151 5.87848 4.42207 12.1248C4.58633 12.4006 4.49529 12.757 4.21986 12.9213C4.12649 12.9767 4.02384 13.003 3.92273 13.003Z" fill="black"/>
<path d="M6.63055 13.0707C6.43956 13.0707 6.25207 12.9762 6.14088 12.8034C3.66351 8.94149 2.68922 6.18752 3.24397 4.6182C3.2769 4.51864 3.323 4.41056 3.37607 4.3048C3.43263 4.17967 3.70342 3.65011 4.33641 3.29061C4.34029 3.28867 4.36741 3.27279 4.37128 3.27085C4.38794 3.26 4.41079 3.24645 4.43481 3.23366C5.35487 2.77189 7.67651 2.5073 12.9656 5.87606C13.2364 6.04845 13.3158 6.40756 13.1438 6.67835C12.971 6.94952 12.6115 7.02855 12.3415 6.85616C7.08457 3.50794 5.27351 4.11382 4.96321 4.26877C4.96244 4.2711 4.94307 4.28311 4.92254 4.29395C4.57234 4.49307 4.43559 4.78284 4.43442 4.78555C4.43171 4.79098 4.42861 4.79756 4.42551 4.80454C4.42241 4.8119 4.41893 4.81887 4.41544 4.82584C4.38755 4.88163 4.36276 4.93819 4.34339 4.99552C4.14543 5.55569 4.02728 7.35551 7.11944 12.1758C7.2926 12.4458 7.21396 12.8053 6.94395 12.9789C6.8471 13.0409 6.73824 13.0707 6.63055 13.0707Z" fill="black"/>
<path d="M20.8524 27.2416C20.5433 27.2416 20.2876 26.9991 20.2721 26.6896C20.2648 26.5745 20.0587 23.8039 16.662 23.2589C15.711 23.1969 14.9455 22.4872 14.7952 21.5222C14.6267 20.4162 15.3615 19.3896 16.4679 19.1831C16.5074 19.1757 16.5439 19.1726 16.5807 19.1711C16.8348 19.1316 18.1825 18.9867 19.4109 20.0234C20.8238 21.2161 21.504 23.4533 21.4339 26.6737C21.4265 26.9867 21.1736 27.2378 20.861 27.242C20.8579 27.2416 20.8551 27.2416 20.8524 27.2416ZM16.6496 20.3317C16.1739 20.4352 15.8706 20.8656 15.9438 21.3448C16.01 21.7686 16.3428 22.08 16.7531 22.1002C16.7736 22.1009 16.7937 22.1033 16.8143 22.1064C18.3406 22.3446 19.3637 22.9621 20.0494 23.6676C19.7945 22.4078 19.3277 21.4734 18.6617 20.9113C17.8436 20.2209 16.9495 20.2953 16.7864 20.3151C16.7581 20.322 16.7294 20.3267 16.6992 20.3294C16.6895 20.3298 16.6682 20.3309 16.6496 20.3317Z" fill="black"/>
<path d="M25.6782 39.2815C23.2105 39.2815 21.9193 37.7529 21.9193 36.2428C21.9193 35.4138 22.2854 33.4854 25.6782 33.4854C25.9989 33.4854 26.2593 33.7453 26.2593 34.0664C26.2593 34.3876 25.9989 34.6475 25.6782 34.6475C23.9551 34.6475 23.0815 35.1841 23.0815 36.2428C23.0815 37.1753 23.9737 38.1193 25.6782 38.1193C25.9989 38.1193 26.2593 38.3793 26.2593 38.7004C26.2593 39.0216 25.9993 39.2815 25.6782 39.2815Z" fill="black"/>
<path d="M25.6415 45.0001C22.9138 45.0001 21.7218 43.7887 20.6701 42.7195C20.0053 42.0439 19.3773 41.4059 18.3751 41.0235C15.1106 39.7784 14.8774 37.3483 15.0289 36.0103C15.197 34.5316 16.0942 33.2377 17.3699 32.6334C17.5457 32.5501 17.7278 32.4761 17.9145 32.4002C18.8753 32.0108 19.8693 31.6083 20.9095 29.2751C22.074 26.6656 24.5831 26.2701 25.7476 26.4266C26.0653 26.4692 26.2888 26.7617 26.2462 27.0797C26.2039 27.397 25.9173 27.6209 25.595 27.5791C25.4838 27.5651 23.0634 27.2998 21.9709 29.7489C20.7394 32.5098 19.4149 33.0463 18.3507 33.4775C18.1846 33.5449 18.0226 33.61 17.8669 33.684C16.9515 34.1179 16.3065 35.0596 16.1829 36.1416C16.0446 37.3673 16.384 39.0211 18.7885 39.938C20.0274 40.4103 20.775 41.1699 21.4975 41.9048C22.5187 42.9423 23.4 43.8383 25.6407 43.8383C25.9614 43.8383 26.2218 44.0982 26.2218 44.4194C26.2218 44.7405 25.9622 45.0001 25.6415 45.0001Z" fill="black"/>
<path d="M16.5551 40.2148C16.5513 40.2148 16.5474 40.2148 16.5439 40.2148C14.2959 40.171 12.7134 39.1216 12.6471 39.0766C9.48409 37.1397 7.32167 33.6535 6.88392 29.7653C6.57517 27.0245 7.20933 24.5882 8.57953 23.2486C9.46627 22.3828 10.4359 21.9628 11.4303 21.9973C13.0082 22.0527 14.0813 23.2381 14.1258 23.2885C15.0742 24.4786 15.0974 25.5993 14.9533 26.3342C14.7406 27.4196 14.027 28.3254 13.4324 28.6593C12.7785 29.0269 12.6363 29.6398 12.6351 29.646C12.6305 29.6673 12.6254 29.6882 12.6185 29.7091C11.8294 32.1385 12.2834 34.4485 13.9674 36.5764C15.2609 38.2097 16.8279 39.1204 16.8434 39.1293C17.0739 39.2614 17.1854 39.533 17.1142 39.7887C17.0448 40.0409 16.8159 40.2148 16.5551 40.2148ZM11.3176 23.1576C10.6664 23.1576 10.0187 23.4679 9.3915 24.0803C8.29209 25.155 7.77337 27.2837 8.03834 29.6355C8.43658 33.1705 10.3941 36.3343 13.2751 38.0996C13.2925 38.1105 13.6578 38.3503 14.2645 38.5866C12.4085 36.8317 10.1268 33.6512 11.5067 29.3713C11.5609 29.1586 11.8507 28.2157 12.8633 27.6463C13.0919 27.518 13.6478 26.9536 13.8132 26.111C13.9538 25.392 13.7601 24.694 13.2375 24.0369C13.2356 24.0369 12.4472 23.1909 11.3808 23.1583C11.3598 23.1579 11.3389 23.1576 11.3176 23.1576Z" fill="black"/>
<path d="M22.4679 40.355C22.2006 40.355 21.9597 40.1686 21.9008 39.8963C21.833 39.5825 22.0325 39.2734 22.3459 39.2056C24.0388 38.8406 25.3788 38.8488 25.4303 38.8484C25.7511 38.8511 26.0087 39.1134 26.006 39.4337C26.0037 39.7549 25.7526 40.0179 25.4206 40.0106C25.4048 40.0137 24.1446 40.0067 22.5907 40.3418C22.5501 40.3507 22.509 40.355 22.4679 40.355Z" fill="black"/>
<path d="M14.9452 5.63857C14.7395 5.63857 14.54 5.52894 14.4346 5.33524C14.2812 5.05322 14.385 4.70031 14.667 4.5469C17.7259 2.87996 21.3491 2.03467 25.4365 2.03467H25.6589C25.9796 2.03467 26.24 2.29461 26.24 2.61576C26.24 2.9369 25.9796 3.19684 25.6589 3.19684H25.4361C21.5452 3.19684 18.109 3.99448 15.2229 5.56729C15.135 5.61572 15.0397 5.63857 14.9452 5.63857Z" fill="black"/>
<path d="M22.9197 44.1963C22.6307 44.1963 22.38 43.9809 22.344 43.6869C22.3041 43.3692 22.5296 43.0795 22.8468 43.0392C22.9297 43.0279 24.678 42.7723 25.1018 41.115C25.1812 40.8039 25.4974 40.616 25.8088 40.6958C26.1199 40.7753 26.307 41.0918 26.2276 41.4028C25.6039 43.8407 23.0982 44.1793 22.9917 44.1924C22.9677 44.1952 22.9437 44.1963 22.9197 44.1963Z" fill="black"/>
<path d="M0.581444 17.1431C0.450506 17.1431 0.321117 17.0994 0.215359 17.0137C0.0352217 16.8677 -0.0410945 16.6283 0.021663 16.4051C0.961475 13.0639 3.64804 11.9962 3.76232 11.9525C4.06022 11.8374 4.39803 11.9862 4.51308 12.286C4.62814 12.5851 4.47938 12.9206 4.18109 13.0364C4.0978 13.0693 2.57961 13.6907 1.6274 15.4932C2.73883 15.124 4.25392 14.8792 5.02444 15.881C5.22046 16.1355 5.17281 16.5004 4.91868 16.6961C4.66378 16.8913 4.29924 16.8444 4.10361 16.5899C3.64687 15.9976 1.89354 16.5307 0.851069 17.0769C0.76623 17.121 0.673643 17.1431 0.581444 17.1431Z" fill="black"/>
<path d="M39.0355 42.8084C38.8476 42.8084 38.6625 42.717 38.5509 42.5485C38.3735 42.2812 38.4463 41.9205 38.714 41.7431C45.1749 37.4616 48.3151 31.9645 48.3151 24.938C48.3151 21.5344 47.4892 19.1492 46.2495 16.6153C46.1085 16.3271 46.2278 15.9788 46.516 15.8382C46.8043 15.6976 47.1521 15.8161 47.2935 16.1047C48.4278 18.4229 49.4773 21.0978 49.4773 24.9384C49.4773 32.2814 46.0721 38.2616 39.3563 42.7123C39.2571 42.7774 39.1459 42.8084 39.0355 42.8084Z" fill="black"/>
<path d="M44.617 13.1065C44.4311 13.1065 44.2478 13.017 44.1355 12.8512C43.2542 11.5491 42.2326 10.3316 41.0987 9.23177C40.2391 8.39811 39.307 7.62526 38.3281 6.93532C38.0658 6.75053 38.0031 6.38793 38.1879 6.12567C38.3734 5.86301 38.7356 5.80103 38.9979 5.98543C40.026 6.71024 41.0054 7.52183 41.9084 8.39772C43.0988 9.55253 44.1723 10.8317 45.0981 12.1996C45.2783 12.4653 45.2086 12.8268 44.9428 13.0065C44.8425 13.0743 44.7293 13.1065 44.617 13.1065Z" fill="black"/>
<path d="M38.6516 42.8861C38.2305 42.8861 37.8273 42.706 37.5456 42.3918C37.3314 42.1528 37.3515 41.7855 37.5906 41.5713C37.8296 41.3567 38.1964 41.3776 38.4111 41.6158C38.4471 41.6561 38.5265 41.7239 38.6516 41.7239C38.7128 41.7239 38.7721 41.7069 38.8225 41.6747C39.0921 41.5023 39.4516 41.5821 39.6244 41.8533C39.7964 42.1241 39.7166 42.4832 39.4458 42.6552C39.2087 42.8063 38.934 42.8861 38.6516 42.8861Z" fill="black"/>
<path d="M37.8354 42.425C37.6719 42.425 37.5096 42.3564 37.3945 42.2231C37.3624 42.1863 35.5517 40.1363 33.7418 40.6701C33.4346 40.7607 33.1108 40.5853 33.0201 40.2773C32.9295 39.9693 33.1049 39.6462 33.4129 39.5556C35.9496 38.8064 38.1821 41.3558 38.2759 41.465C38.485 41.7083 38.4575 42.0752 38.2139 42.2847C38.1042 42.3789 37.9694 42.425 37.8354 42.425Z" fill="black"/>
<path d="M32.2469 29.0387C30.9588 29.0387 29.9105 27.9904 29.9105 26.7023C29.9105 25.4142 30.9588 24.366 32.2469 24.366C33.5345 24.366 34.5824 25.4142 34.5824 26.7023C34.5824 27.9904 33.5345 29.0387 32.2469 29.0387ZM32.2469 25.5281C31.5991 25.5281 31.0727 26.055 31.0727 26.7023C31.0727 27.3497 31.5991 27.8765 32.2469 27.8765C32.8938 27.8765 33.4203 27.3497 33.4203 26.7023C33.4203 26.055 32.8934 25.5281 32.2469 25.5281Z" fill="black"/>
<path d="M47.4287 13.0028C47.3276 13.0028 47.2254 12.9764 47.132 12.9214C46.8562 12.7572 46.7655 12.4008 46.9298 12.1249C50.6437 5.87825 49.9681 3.11576 49.7949 2.62532C49.762 2.52731 49.7236 2.43666 49.6783 2.34678C49.6702 2.33167 49.6551 2.29875 49.6489 2.28248C49.6481 2.28248 49.43 1.81877 48.8888 1.51079C48.845 1.486 48.8241 1.47321 48.8032 1.46082C48.2403 1.17725 45.0157 0.0491627 36.8332 5.59584C36.5678 5.77559 36.2064 5.70663 36.0263 5.44088C35.8461 5.17513 35.9155 4.81369 36.1808 4.63394C44.4497 -0.97084 48.126 -0.179786 49.3239 0.421059C49.3533 0.43578 49.3835 0.453213 49.4133 0.471807L49.1433 0.987038L49.4633 0.501249C50.3501 1.00563 50.6875 1.75601 50.7231 1.84007C50.7863 1.96249 50.8463 2.10583 50.8936 2.24839C51.2566 3.27575 51.7009 6.37372 47.9281 12.7192C47.82 12.9013 47.6267 13.0028 47.4287 13.0028Z" fill="black"/>
<path d="M44.72 13.0703C44.6127 13.0703 44.5035 13.0404 44.4066 12.9785C44.1366 12.8053 44.058 12.4458 44.2311 12.1754C47.3229 7.35546 47.2055 5.55525 47.0114 5.00477C46.989 4.94046 46.965 4.88235 46.9363 4.8254C46.9274 4.80797 46.9134 4.77814 46.9065 4.75955V4.75994C46.9045 4.75994 46.7654 4.48566 46.4404 4.30126C46.4327 4.297 46.4253 4.29235 46.4176 4.28771C46.4021 4.27918 46.3877 4.27027 46.373 4.26136C46.0774 4.11377 44.2664 3.50827 39.0099 6.85611C38.7399 7.0285 38.3804 6.94947 38.2076 6.6783C38.0356 6.40751 38.115 6.0484 38.3858 5.87601C43.6741 2.50803 45.9949 2.77223 46.908 3.22974C46.9239 3.23749 46.9704 3.26422 46.9855 3.27351C47.0014 3.28281 47.0149 3.29056 47.0266 3.29792C47.6847 3.67679 47.9462 4.23812 47.9822 4.32102C48.0373 4.43259 48.076 4.5275 48.1089 4.62357C48.6613 6.18864 47.6863 8.94222 45.2097 12.8033C45.0981 12.9757 44.911 13.0703 44.72 13.0703Z" fill="black"/>
<path d="M30.499 27.2416C30.4962 27.2416 30.4935 27.2416 30.4908 27.2416C30.1778 27.2374 29.9248 26.986 29.9179 26.6733C29.8474 23.4533 30.5276 21.2158 31.9408 20.023C33.1723 18.9832 34.5236 19.1324 34.7734 19.1711C34.8037 19.1715 34.8416 19.175 34.8807 19.1823C35.9902 19.3896 36.7251 20.4162 36.5554 21.5202C36.4055 22.4868 35.6408 23.1965 34.6894 23.2585C31.2621 23.8078 31.0851 26.5714 31.0793 26.6892C31.0638 26.9991 30.8081 27.2416 30.499 27.2416ZM34.3272 20.3011C33.9661 20.3011 33.3002 20.3871 32.6722 20.9268C32.016 21.4904 31.5554 22.419 31.3028 23.6672C31.9885 22.9621 33.0116 22.3442 34.5379 22.106C34.5584 22.1029 34.5786 22.1006 34.5991 22.0998C35.0094 22.0796 35.3417 21.7686 35.4076 21.3432C35.4808 20.8656 35.1787 20.4356 34.7014 20.3313C34.682 20.331 34.6611 20.3298 34.653 20.3294C34.6235 20.3267 34.5945 20.322 34.5662 20.3155C34.5232 20.3096 34.4403 20.3011 34.3272 20.3011Z" fill="black"/>
<path d="M25.6724 39.2815C25.3516 39.2815 25.0913 39.0216 25.0913 38.7004C25.0913 38.3793 25.3516 38.1193 25.6724 38.1193C27.3769 38.1193 28.2691 37.1753 28.2691 36.2428C28.2691 35.1844 27.3955 34.6475 25.6724 34.6475C25.3516 34.6475 25.0913 34.3876 25.0913 34.0664C25.0913 33.7453 25.3516 33.4854 25.6724 33.4854C29.0651 33.4854 29.4312 35.4138 29.4312 36.2428C29.4312 37.7529 28.1401 39.2815 25.6724 39.2815Z" fill="black"/>
<path d="M25.7096 45.0002C25.3889 45.0002 25.1286 44.7403 25.1286 44.4191C25.1286 44.098 25.3889 43.8381 25.7096 43.8381C27.9503 43.8381 28.832 42.9424 29.8528 41.905C30.5757 41.1705 31.3233 40.4104 32.5626 39.9382C34.9679 39.0205 35.3065 37.3671 35.1674 36.1417C35.045 35.0598 34.3996 34.118 33.4834 33.6841C33.3273 33.6105 33.1658 33.5451 32.9996 33.4777C31.9354 33.0465 30.6113 32.5099 29.3794 29.749C28.2753 27.2728 25.7821 27.5754 25.7577 27.5792C25.4404 27.6195 25.1472 27.3987 25.1045 27.0803C25.0619 26.7622 25.2855 26.4697 25.6031 26.4271C26.7707 26.2722 29.2771 26.6665 30.4405 29.2756C31.4814 31.6085 32.4747 32.0114 33.4354 32.4003C33.6225 32.4762 33.8042 32.5502 33.9801 32.6335C35.2565 33.2382 36.1537 34.5321 36.3211 36.0104C36.4733 37.3481 36.2413 39.7786 32.9756 41.0237C31.973 41.406 31.345 42.044 30.6799 42.7197C29.6293 43.7889 28.4373 45.0002 25.7096 45.0002Z" fill="black"/>
<path d="M34.7959 40.2148C34.5352 40.2148 34.3058 40.0408 34.2365 39.7887C34.1652 39.533 34.2768 39.2614 34.5073 39.1293C34.5228 39.1204 36.0898 38.2096 37.3833 36.5764C39.068 34.4488 39.5221 32.1381 38.7329 29.7091C38.726 29.6886 38.7209 29.6677 38.7163 29.646C38.7116 29.627 38.5664 29.0234 37.9183 28.6593C37.3236 28.3257 36.61 27.4196 36.3974 26.3345C36.2536 25.5997 36.2765 24.4785 37.2047 23.3133C37.2702 23.2385 38.3428 22.0527 39.9211 21.9977C40.9252 21.9621 41.8851 22.3835 42.7707 23.249C44.1417 24.5882 44.7759 27.0241 44.4675 29.7645C44.0298 33.6531 41.8669 37.1393 38.6822 39.0906C38.6373 39.122 37.0548 40.1714 34.8067 40.2148C34.8032 40.2148 34.7994 40.2148 34.7959 40.2148ZM39.8451 29.3713C41.225 33.652 38.9417 36.8325 37.0854 38.5874C37.6889 38.353 38.0488 38.1167 38.0558 38.112C40.957 36.3339 42.9148 33.1693 43.3127 29.6343C43.5773 27.2829 43.0586 25.1545 41.9591 24.0799C41.3126 23.4481 40.6467 23.1397 39.971 23.1583C38.8941 23.1912 38.0999 24.0544 38.0918 24.0629C37.5909 24.6935 37.3968 25.3916 37.5378 26.1106C37.7029 26.9532 38.2588 27.5176 38.487 27.6459C39.5011 28.2157 39.7909 29.1586 39.8451 29.3713Z" fill="black"/>
<path d="M28.8835 40.3545C28.8429 40.3545 28.8014 40.3502 28.7603 40.3413C27.2073 40.0062 25.9467 40.0132 25.9297 40.0101C25.9281 40.0101 25.9266 40.0101 25.9254 40.0101C25.6066 40.0101 25.3466 39.7529 25.3443 39.4333C25.3416 39.1125 25.5992 38.8507 25.92 38.8479C25.9703 38.8452 27.3123 38.8398 29.0052 39.2051C29.319 39.2729 29.5181 39.582 29.4503 39.8958C29.3918 40.1682 29.1508 40.3545 28.8835 40.3545Z" fill="black"/>
<path d="M36.4055 5.63857C36.3113 5.63857 36.216 5.61572 36.1277 5.56729C33.2417 3.99448 29.8055 3.19684 25.9145 3.19684H25.6929C25.3722 3.19684 25.1118 2.9369 25.1118 2.61576C25.1118 2.29461 25.3722 2.03467 25.6929 2.03467H25.9145C30.0019 2.03467 33.6252 2.87996 36.684 4.5469C36.966 4.70031 37.0699 5.05322 36.9164 5.33524C36.8107 5.52855 36.6112 5.63857 36.4055 5.63857Z" fill="black"/>
<path d="M28.431 44.1963C28.4069 44.1963 28.3829 44.1952 28.3585 44.1921C28.2524 44.1789 25.7475 43.8407 25.1234 41.4025C25.044 41.0918 25.2311 40.7749 25.5422 40.6955C25.8536 40.6168 26.1698 40.8032 26.2492 41.1146C26.6784 42.7936 28.4833 43.0361 28.5011 43.0384C28.8195 43.0779 29.0458 43.3685 29.0062 43.6865C28.9702 43.9809 28.72 44.1963 28.431 44.1963Z" fill="black"/>
<path d="M50.7699 17.1433C50.6781 17.1433 50.5852 17.1212 50.5003 17.077C49.4579 16.5308 47.7041 15.9974 47.2478 16.5901C47.0521 16.845 46.688 16.8915 46.4327 16.6962C46.1786 16.5006 46.1309 16.1357 46.327 15.8811C47.0971 14.879 48.6122 15.1242 49.724 15.4934C48.7695 13.687 47.2466 13.0664 47.1699 13.0361C46.872 12.9188 46.7244 12.5821 46.8402 12.2842C46.9561 11.9867 47.2896 11.8372 47.5891 11.9526C47.7034 11.9964 50.3899 13.064 51.3297 16.4053C51.3925 16.6288 51.3162 16.8678 51.136 17.0139C51.0303 17.0995 50.9009 17.1433 50.7699 17.1433Z" fill="black"/>
</svg>
