<svg width="58" height="47" viewBox="0 0 58 47" fill="none" xmlns="http://www.w3.org/2000/svg">
<path d="M40.8163 21.4824C40.7633 20.5347 40.4644 19.6672 40.4644 19.6672L39.6207 15.3644C39.3445 15.0434 39.0002 14.7568 38.6105 14.5084C35.4475 12.4908 29.1216 12.6971 29.1216 12.6971C29.1216 12.6971 22.7956 12.4908 19.6326 14.5084C19.2429 14.7568 18.8986 15.0434 18.6224 15.3644L17.7787 19.6672C17.7787 19.6672 17.476 20.5385 17.4268 21.4824C17.3777 22.3689 17.5441 23.3204 18.3803 23.6911C18.2214 24.3063 18.0549 25.1317 17.9754 26.0832C17.9036 26.9239 17.9036 27.864 18.036 28.8422C18.0965 29.2855 18.1835 29.7364 18.3084 30.1873C19.0916 33.0725 21.1763 36.718 22.2092 38.4185C22.2243 39.2172 22.3945 40.054 22.8032 40.8985C22.8032 40.8985 22.788 41.1049 23.5599 41.3151C24.3393 41.5252 25.9207 41.7354 29.1253 41.7354C32.33 41.7354 33.9114 41.5252 34.6908 41.3151C35.4627 41.1049 35.4475 40.8985 35.4475 40.8985C35.8561 40.054 36.0264 39.2172 36.0415 38.4185C37.0744 36.718 39.1591 33.0725 39.9423 30.1873C40.0634 29.7364 40.1542 29.2855 40.2147 28.8422C40.3471 27.864 40.3471 26.9239 40.2752 26.0832C40.1958 25.1317 40.0293 24.3025 39.8704 23.6911C40.6952 23.3204 40.8655 22.3689 40.8163 21.4824ZM32.8786 35.3194C32.8596 35.3538 31.7322 37.4555 30.7333 37.9485C30.7333 37.9446 30.8014 36.1142 32.8786 35.3194ZM27.5022 37.9446C26.5034 37.4517 25.3759 35.35 25.357 35.3156C27.4304 36.1142 27.5022 37.9446 27.5022 37.9446Z" stroke="black" stroke-width="1.25" stroke-miterlimit="10" stroke-linecap="round" stroke-linejoin="round"/>
<path d="M18.0284 28.8423C17.4609 28.8729 16.7155 28.8614 15.7356 28.8041C11.8273 28.5633 10.3971 26.1597 9.87502 24.4057C9.60261 23.4886 10.3215 22.5753 11.2673 22.6365C12.2662 22.6976 13.5336 22.8046 14.593 22.9651C15.9021 23.1638 17.1582 24.8375 17.9679 26.0871C17.896 26.924 17.8922 27.864 18.0284 28.8423Z" stroke="black" stroke-width="1.25" stroke-miterlimit="10" stroke-linecap="round" stroke-linejoin="round"/>
<path d="M27.5022 37.9445C26.5034 37.4516 25.3759 35.3498 25.357 35.3154C27.4303 36.1141 27.5022 37.9445 27.5022 37.9445Z" stroke="black" stroke-width="1.25" stroke-miterlimit="10" stroke-linecap="round" stroke-linejoin="round"/>
<path d="M19.6288 14.5087C19.2391 14.7571 18.8948 15.0437 18.6186 15.3647L17.7749 19.6675C17.7749 19.6675 17.4722 20.5388 17.4231 21.4827C15.5919 21.0126 12.7391 20.1528 8.41839 18.5937C-1.16515 15.1316 0.715238 7.10682 2.26268 5.01655C3.81012 2.92628 3.29557 1.00415 3.29557 1.00415C4.60087 2.04737 4.05605 4.96305 4.05605 4.96305C3.02316 11.616 5.19866 12.5484 9.06158 13.8668C12.9283 15.1851 19.6288 14.5087 19.6288 14.5087Z" stroke="black" stroke-width="1.25" stroke-miterlimit="10" stroke-linecap="round" stroke-linejoin="round"/>
<path d="M48.3605 24.4055C47.8384 26.1595 46.4083 28.5632 42.4999 28.8039C41.52 28.865 40.7747 28.8727 40.2072 28.8421C40.3396 27.8639 40.3396 26.9238 40.2677 26.0831C41.0736 24.8374 42.3335 23.1636 43.6426 22.9611C44.7019 22.8006 45.9694 22.6936 46.9682 22.6324C47.9141 22.5751 48.633 23.4884 48.3605 24.4055Z" stroke="black" stroke-width="1.25" stroke-miterlimit="10" stroke-linecap="round" stroke-linejoin="round"/>
<path d="M22.2016 38.4222C22.1486 35.3346 24.4565 32.8469 24.4565 32.8469" stroke="black" stroke-width="1.25" stroke-miterlimit="10" stroke-linecap="round" stroke-linejoin="round"/>
<path d="M33.779 32.843C33.779 32.843 36.0832 35.3345 36.034 38.4183" stroke="black" stroke-width="1.25" stroke-miterlimit="10" stroke-linecap="round" stroke-linejoin="round"/>
<path d="M32.8785 35.3193C32.8596 35.3537 31.7321 37.4555 30.7333 37.9484C30.7333 37.9446 30.8014 36.1142 32.8785 35.3193Z" stroke="black" stroke-width="1.25" stroke-miterlimit="10" stroke-linecap="round" stroke-linejoin="round"/>
<path d="M49.821 18.5934C45.5002 20.1563 42.6475 21.0123 40.8163 21.4823C40.7633 20.5346 40.4644 19.6672 40.4644 19.6672L39.6207 15.3644C39.3445 15.0434 39.0002 14.7568 38.6105 14.5084C38.6105 14.5084 45.3073 15.1848 49.1702 13.8626C53.0331 12.5442 55.2124 11.608 54.1757 4.9589C54.1757 4.9589 53.6309 2.04704 54.9362 1C54.9362 1 54.4217 2.92213 55.9691 5.0124C57.5203 7.10649 59.4007 15.1313 49.821 18.5934Z" stroke="black" stroke-width="1.25" stroke-miterlimit="10" stroke-linecap="round" stroke-linejoin="round"/>
<path d="M39.8629 23.6909C39.8629 23.6909 37.8917 21.956 35.44 25.1239C35.44 25.1239 37.7592 27.8943 39.8629 23.6909Z" stroke="black" stroke-width="1.25" stroke-miterlimit="10" stroke-linecap="round" stroke-linejoin="round"/>
<path d="M18.3803 23.6909C18.3803 23.6909 20.3515 21.956 22.8032 25.1239C22.8032 25.1239 20.4839 27.8943 18.3803 23.6909Z" stroke="black" stroke-width="1.25" stroke-miterlimit="10" stroke-linecap="round" stroke-linejoin="round"/>
<path d="M18.3803 23.6909C18.3803 23.6909 20.3515 21.956 22.8032 25.1239" stroke="black" stroke-width="1.25" stroke-miterlimit="10" stroke-linecap="round" stroke-linejoin="round"/>
<path d="M23.2761 21.127L24.0063 22.3383" stroke="black" stroke-width="1.25" stroke-miterlimit="10" stroke-linecap="round" stroke-linejoin="round"/>
<path d="M35.0465 21.127L34.3163 22.3383" stroke="black" stroke-width="1.25" stroke-miterlimit="10" stroke-linecap="round" stroke-linejoin="round"/>
<path d="M34.6833 41.3149V43.2944C34.6833 45.4267 32.1938 45.9999 29.1178 45.9999C26.0418 45.9999 23.5523 45.4305 23.5523 43.2944V41.3149C24.3317 41.5251 25.9132 41.7353 29.1178 41.7353C32.3224 41.7353 33.9039 41.5289 34.6833 41.3149Z" stroke="black" stroke-width="1.25" stroke-miterlimit="10" stroke-linecap="round" stroke-linejoin="round"/>
<path d="M40.8163 21.4824C40.7633 20.5347 40.4644 19.6672 40.4644 19.6672L39.6207 15.3644C39.3445 15.0434 39.0002 14.7568 38.6105 14.5084C35.4475 12.4908 29.1216 12.6971 29.1216 12.6971C29.1216 12.6971 22.7956 12.4908 19.6326 14.5084C19.2429 14.7568 18.8986 15.0434 18.6224 15.3644L17.7787 19.6672C17.7787 19.6672 17.476 20.5385 17.4268 21.4824C17.3777 22.3689 17.5441 23.3204 18.3803 23.6911C18.2214 24.3063 18.0549 25.1317 17.9754 26.0832C17.9036 26.9239 17.9036 27.864 18.036 28.8422C18.0965 29.2855 18.1835 29.7364 18.3084 30.1873C19.0916 33.0725 21.1763 36.718 22.2092 38.4185C22.2243 39.2172 22.3945 40.054 22.8032 40.8985C22.8032 40.8985 22.788 41.1049 23.5599 41.3151C24.3393 41.5252 25.9207 41.7354 29.1253 41.7354C32.33 41.7354 33.9114 41.5252 34.6908 41.3151C35.4627 41.1049 35.4475 40.8985 35.4475 40.8985C35.8561 40.054 36.0264 39.2172 36.0415 38.4185C37.0744 36.718 39.1591 33.0725 39.9423 30.1873C40.0634 29.7364 40.1542 29.2855 40.2147 28.8422C40.3471 27.864 40.3471 26.9239 40.2752 26.0832C40.1958 25.1317 40.0293 24.3025 39.8704 23.6911C40.6952 23.3204 40.8655 22.3689 40.8163 21.4824ZM32.8786 35.3194C32.8596 35.3538 31.7322 37.4555 30.7333 37.9485C30.7333 37.9446 30.8014 36.1142 32.8786 35.3194ZM27.5022 37.9446C26.5034 37.4517 25.3759 35.35 25.357 35.3156C27.4304 36.1142 27.5022 37.9446 27.5022 37.9446Z" stroke="black" stroke-width="1.25" stroke-miterlimit="10" stroke-linecap="round" stroke-linejoin="round"/>
<path d="M18.0284 28.8423C17.4609 28.8729 16.7155 28.8614 15.7356 28.8041C11.8273 28.5633 10.3971 26.1597 9.87502 24.4057C9.60261 23.4886 10.3215 22.5753 11.2673 22.6365C12.2662 22.6976 13.5336 22.8046 14.593 22.9651C15.9021 23.1638 17.1582 24.8375 17.9679 26.0871C17.896 26.924 17.8922 27.864 18.0284 28.8423Z" stroke="black" stroke-width="1.25" stroke-miterlimit="10" stroke-linecap="round" stroke-linejoin="round"/>
<path d="M27.5022 37.9445C26.5034 37.4516 25.3759 35.3498 25.357 35.3154C27.4303 36.1141 27.5022 37.9445 27.5022 37.9445Z" stroke="black" stroke-width="1.25" stroke-miterlimit="10" stroke-linecap="round" stroke-linejoin="round"/>
<path d="M19.6288 14.5087C19.2391 14.7571 18.8948 15.0437 18.6186 15.3647L17.7749 19.6675C17.7749 19.6675 17.4722 20.5388 17.4231 21.4827C15.5919 21.0126 12.7391 20.1528 8.41839 18.5937C-1.16515 15.1316 0.715238 7.10682 2.26268 5.01655C3.81012 2.92628 3.29557 1.00415 3.29557 1.00415C4.60087 2.04737 4.05605 4.96305 4.05605 4.96305C3.02316 11.616 5.19866 12.5484 9.06158 13.8668C12.9283 15.1851 19.6288 14.5087 19.6288 14.5087Z" stroke="black" stroke-width="1.25" stroke-miterlimit="10" stroke-linecap="round" stroke-linejoin="round"/>
<path d="M48.3605 24.4055C47.8384 26.1595 46.4083 28.5632 42.4999 28.8039C41.52 28.865 40.7747 28.8727 40.2072 28.8421C40.3396 27.8639 40.3396 26.9238 40.2677 26.0831C41.0736 24.8374 42.3335 23.1636 43.6426 22.9611C44.7019 22.8006 45.9694 22.6936 46.9682 22.6324C47.9141 22.5751 48.633 23.4884 48.3605 24.4055Z" stroke="black" stroke-width="1.25" stroke-miterlimit="10" stroke-linecap="round" stroke-linejoin="round"/>
<path d="M22.2016 38.4222C22.1486 35.3346 24.4565 32.8469 24.4565 32.8469" stroke="black" stroke-width="1.25" stroke-miterlimit="10" stroke-linecap="round" stroke-linejoin="round"/>
<path d="M33.779 32.843C33.779 32.843 36.0832 35.3345 36.034 38.4183" stroke="black" stroke-width="1.25" stroke-miterlimit="10" stroke-linecap="round" stroke-linejoin="round"/>
<path d="M32.8785 35.3193C32.8596 35.3537 31.7321 37.4555 30.7333 37.9484C30.7333 37.9446 30.8014 36.1142 32.8785 35.3193Z" stroke="black" stroke-width="1.25" stroke-miterlimit="10" stroke-linecap="round" stroke-linejoin="round"/>
<path d="M49.821 18.5934C45.5002 20.1563 42.6475 21.0123 40.8163 21.4823C40.7633 20.5346 40.4644 19.6672 40.4644 19.6672L39.6207 15.3644C39.3445 15.0434 39.0002 14.7568 38.6105 14.5084C38.6105 14.5084 45.3073 15.1848 49.1702 13.8626C53.0331 12.5442 55.2124 11.608 54.1757 4.9589C54.1757 4.9589 53.6309 2.04704 54.9362 1C54.9362 1 54.4217 2.92213 55.9691 5.0124C57.5203 7.10649 59.4007 15.1313 49.821 18.5934Z" stroke="black" stroke-width="1.25" stroke-miterlimit="10" stroke-linecap="round" stroke-linejoin="round"/>
<path d="M39.8629 23.6909C39.8629 23.6909 37.8917 21.956 35.44 25.1239C35.44 25.1239 37.7592 27.8943 39.8629 23.6909Z" stroke="black" stroke-width="1.25" stroke-miterlimit="10" stroke-linecap="round" stroke-linejoin="round"/>
<path d="M18.3803 23.6909C18.3803 23.6909 20.3515 21.956 22.8032 25.1239C22.8032 25.1239 20.4839 27.8943 18.3803 23.6909Z" stroke="black" stroke-width="1.25" stroke-miterlimit="10" stroke-linecap="round" stroke-linejoin="round"/>
<path d="M18.3803 23.6909C18.3803 23.6909 20.3515 21.956 22.8032 25.1239" stroke="black" stroke-width="1.25" stroke-miterlimit="10" stroke-linecap="round" stroke-linejoin="round"/>
<path d="M23.2761 21.127L24.0063 22.3383" stroke="black" stroke-width="1.25" stroke-miterlimit="10" stroke-linecap="round" stroke-linejoin="round"/>
<path d="M35.0465 21.127L34.3163 22.3383" stroke="black" stroke-width="1.25" stroke-miterlimit="10" stroke-linecap="round" stroke-linejoin="round"/>
<path d="M34.6833 41.3149V43.2944C34.6833 45.4267 32.1938 45.9999 29.1178 45.9999C26.0418 45.9999 23.5523 45.4305 23.5523 43.2944V41.3149C24.3317 41.5251 25.9132 41.7353 29.1178 41.7353C32.3224 41.7353 33.9039 41.5289 34.6833 41.3149Z" stroke="black" stroke-width="1.25" stroke-miterlimit="10" stroke-linecap="round" stroke-linejoin="round"/>
</svg>
