<svg width="62" height="45" viewBox="0 0 62 45" fill="none" xmlns="http://www.w3.org/2000/svg">
<path d="M23.139 44.2927C23.0042 44.2927 22.9178 44.2909 22.8902 44.2901C14.8166 44.2901 8.2348 37.5318 8.2348 29.2243C8.2348 26.0822 9.32748 22.8113 11.2338 20.2462L11.3421 20.0675C12.0755 18.9438 15.7601 13.2157 17.2962 9.20694C19.7712 2.74891 24.0071 -0.175502 30.6204 0.00812582C30.9339 0.016834 31.1811 0.277699 31.1724 0.591571C31.1637 0.905442 30.885 1.15343 30.5889 1.14359C24.4293 0.970564 20.6662 3.58679 18.3567 9.61357C16.8191 13.6265 13.3347 19.0926 12.3034 20.6721L12.1913 20.858C12.1819 20.8739 12.1716 20.8891 12.1607 20.9035C10.3876 23.28 9.37065 26.3131 9.37065 29.2247C9.37065 36.9056 15.4429 43.1546 22.9061 43.1546C24.6364 43.2042 29.2184 42.8241 30.0051 40.5566L30.0055 38.9111C30.0055 38.5976 30.2599 38.3432 30.5734 38.3432C30.8869 38.3432 31.1413 38.5976 31.1413 38.9111L31.141 40.6463C31.141 40.7023 31.1326 40.758 31.1164 40.8114C30.1142 44.1042 24.4255 44.2927 23.139 44.2927Z" fill="black"/>
<path d="M21.3681 21.8952C21.0565 21.8952 20.7544 21.8161 20.4833 21.6498C19.5129 21.0539 19.3592 19.5978 20.1338 18.3347C20.9092 17.0713 22.2772 16.5484 23.2476 17.1439C24.218 17.7403 24.3713 19.1964 23.5963 20.4591C23.0378 21.3689 22.1715 21.8952 21.3681 21.8952ZM22.3662 18.0382C21.9834 18.0382 21.4635 18.3389 21.1016 18.9284C20.6374 19.6852 20.7162 20.4599 21.077 20.6813C21.4374 20.9021 22.1632 20.6215 22.6278 19.8647C23.0923 19.1078 23.0136 18.3336 22.6524 18.1117C22.5729 18.0625 22.4752 18.0382 22.3662 18.0382Z" fill="black"/>
<path d="M28.9006 37.5541C28.7553 37.5541 28.6099 37.4988 28.4989 37.3878C27.956 36.8449 26.8444 35.9173 26.833 35.9082C26.5922 35.7076 26.5597 35.3494 26.7603 35.1082C26.9614 34.8674 27.3188 34.8345 27.5603 35.0355C27.6077 35.0749 28.7227 36.0051 29.302 36.5848C29.5238 36.8063 29.5238 37.1664 29.302 37.3878C29.1914 37.4988 29.046 37.5541 28.9006 37.5541Z" fill="black"/>
<path d="M15.4053 14.6874C15.2009 14.6874 15.0033 14.5768 14.9018 14.3834C14.5644 13.7409 14.0783 13.3369 13.4952 13.215C12.9432 13.0991 12.4298 13.2562 12.1864 13.4508C11.6802 13.856 11.2531 13.8711 10.9824 13.8136C10.4678 13.7026 10.232 13.285 10.1896 13.2025C9.21576 11.3011 12.2182 7.84054 13.9424 6.27686C16.1171 4.30353 18.4774 5.28111 19.4217 6.07317C19.6617 6.27459 19.6932 6.63314 19.4917 6.87318C19.2907 7.11247 18.9337 7.14465 18.6936 6.94474C18.6122 6.87773 16.6809 5.32616 14.7057 7.11815C12.1485 9.43829 10.8063 11.9144 11.2012 12.686C11.2012 12.6823 11.2175 12.7008 11.2262 12.7046C11.2398 12.7046 11.3296 12.6819 11.4768 12.5641C12.0376 12.1155 12.9205 11.9349 13.7281 12.1037C14.3736 12.2389 15.2759 12.6527 15.9078 13.856C16.0535 14.1335 15.9468 14.4769 15.6689 14.6227C15.5844 14.6666 15.4943 14.6874 15.4053 14.6874Z" fill="black"/>
<path d="M18.315 27.5401C16.785 27.5401 15.2373 26.9082 15.1642 26.8779C14.3642 26.5754 13.8334 26.2695 13.4067 26.0238C12.8921 25.7273 12.5207 25.513 11.8536 25.3983C10.8234 25.2207 9.86018 26.3308 9.85071 26.3426C9.64702 26.5803 9.28923 26.6095 9.0507 26.4066C8.81255 26.2036 8.78226 25.847 8.98406 25.6081C9.0401 25.5418 10.374 23.991 12.0463 24.2791C12.9122 24.4283 13.404 24.7119 13.9734 25.0398C14.385 25.2768 14.8518 25.5456 15.5822 25.822C15.6151 25.8352 17.3545 26.5417 18.7466 26.3808C20.6742 26.1567 22.164 25.6478 23.1707 23.8937C23.1795 23.8785 23.1889 23.8634 23.1991 23.849C23.2109 23.832 24.4675 22.001 24.6583 19.122C24.748 17.7673 25.1168 13.0218 26.088 8.8362C27.1916 4.08004 28.655 1.76709 30.5613 1.76709C30.5666 1.76709 30.5715 1.76709 30.5768 1.76709C30.8903 1.76898 31.1432 2.02493 31.141 2.3388C31.1391 2.65115 30.885 2.90293 30.573 2.90293C30.5696 2.90293 30.5658 2.90293 30.5624 2.90293C28.1401 2.90293 26.3291 11.0958 25.7915 19.1974C25.5882 22.263 24.3126 24.2314 24.1438 24.4798C22.8232 26.7628 20.7416 27.2925 18.8776 27.5091C18.6925 27.5307 18.5039 27.5401 18.315 27.5401Z" fill="black"/>
<path d="M30.5416 44.9995C26.8792 44.9995 24.7435 44.1749 24.6541 44.1397C24.3622 44.025 24.2191 43.6952 24.3338 43.4033C24.4489 43.1118 24.7779 42.9687 25.0695 43.0826C25.1028 43.0955 27.1253 43.8633 30.5412 43.8633C30.8551 43.8633 31.1091 44.1174 31.1091 44.4312C31.1091 44.7451 30.8555 44.9995 30.5416 44.9995Z" fill="black"/>
<path d="M20.887 33.7052C20.8192 33.7052 20.7503 33.6927 20.6829 33.667L2.50941 26.6626C2.21674 26.5498 2.07097 26.2211 2.1838 25.9285C2.29663 25.6358 2.62413 25.49 2.91793 25.6029L21.0914 32.6072C21.3841 32.7201 21.5299 33.0487 21.417 33.3414C21.3299 33.567 21.1149 33.7052 20.887 33.7052Z" fill="black"/>
<path d="M0.567466 40.5202C0.305465 40.5202 0.070345 40.3381 0.0127957 40.0716C-0.0530832 39.7649 0.141903 39.4628 0.448581 39.3969L18.9375 35.4215C19.2441 35.3541 19.5459 35.5506 19.6121 35.8572C19.6784 36.1639 19.483 36.466 19.1764 36.5319L0.687486 40.5074C0.646975 40.5161 0.606841 40.5202 0.567466 40.5202Z" fill="black"/>
<path d="M38.0291 44.2933C36.7585 44.2933 31.0645 44.1063 30.0619 40.8116C30.0456 40.7582 30.0373 40.7025 30.0373 40.6465L30.0369 38.9113C30.0369 38.5974 30.291 38.3434 30.6048 38.3434C30.9187 38.3434 31.1728 38.5974 31.1728 38.9113L31.1731 40.5567C31.9599 42.8239 36.537 43.1999 38.2563 43.1552C45.7354 43.1552 51.8076 36.9061 51.8076 29.2252C51.8076 26.3137 50.7907 23.2806 49.0176 20.904C49.0066 20.8892 48.9964 20.8741 48.9869 20.8586L48.8647 20.6564C47.8435 19.0931 44.3595 13.627 42.8216 9.61412C40.512 3.58771 36.7456 0.973758 30.5893 1.14413C30.2868 1.15587 30.0146 0.905607 30.0059 0.592115C29.9976 0.278622 30.2444 0.0173781 30.5579 0.00866997C37.1681 -0.172686 41.4067 2.74946 43.8821 9.20748C45.4181 13.2159 49.1028 18.9439 49.826 20.0518L49.9441 20.2464C51.8504 22.8119 52.9435 26.0827 52.9435 29.2248C52.9435 37.532 46.362 44.2906 38.2722 44.2906C38.246 44.291 38.1616 44.2933 38.0291 44.2933Z" fill="black"/>
<path d="M39.81 21.8946C39.0062 21.8946 38.1404 21.3687 37.5819 20.4585C36.8072 19.1962 36.9602 17.7396 37.9306 17.1437C38.9006 16.5478 40.2689 17.0706 41.0443 18.3341C41.819 19.5975 41.6656 21.0536 40.6952 21.6492C40.4238 21.8158 40.1213 21.8946 39.81 21.8946ZM38.8116 18.038C38.7026 18.038 38.6045 18.0622 38.5246 18.1114C38.1638 18.3329 38.0851 19.1076 38.5496 19.8644C39.0142 20.6217 39.7389 20.9018 40.1004 20.6811C40.4613 20.4596 40.5396 19.685 40.0754 18.9281C39.7146 18.3386 39.1944 18.038 38.8116 18.038Z" fill="black"/>
<path d="M32.2772 37.5541C32.1318 37.5541 31.9864 37.4988 31.8755 37.3878C31.6536 37.1664 31.6536 36.8063 31.8755 36.5848C32.4548 36.0051 33.5702 35.0749 33.6171 35.0355C33.8583 34.8345 34.2165 34.8674 34.4171 35.1082C34.6178 35.3494 34.5852 35.7076 34.3444 35.9082C34.3331 35.9173 33.2215 36.8449 32.6785 37.3878C32.568 37.4988 32.4226 37.5541 32.2772 37.5541Z" fill="black"/>
<path d="M45.7725 14.6875C45.6836 14.6875 45.5934 14.6663 45.509 14.6224C45.2315 14.4766 45.1243 14.1332 45.2701 13.8557C45.9016 12.6524 46.8043 12.2386 47.4498 12.1035C48.2574 11.935 49.1403 12.1156 49.701 12.5639C49.8476 12.6812 49.9392 12.7047 49.9577 12.7028C49.96 12.7005 49.9774 12.6824 49.9854 12.6695C50.3716 11.9142 49.0294 9.43801 46.4722 7.11787C44.4792 5.30998 42.5668 6.87555 42.4862 6.94294C42.2454 7.14475 41.8876 7.11332 41.6862 6.8729C41.4843 6.63248 41.5158 6.27431 41.7562 6.07289C42.7008 5.28045 45.0607 4.30362 47.2355 6.27658C48.9593 7.84026 51.9621 11.3008 50.9876 13.203C50.9459 13.2847 50.7097 13.702 50.1951 13.8129C49.9263 13.8712 49.4977 13.8549 48.9915 13.4502C48.7484 13.2556 48.2347 13.0988 47.6826 13.2143C47.0996 13.3362 46.6131 13.7402 46.2761 14.3827C46.1746 14.5769 45.977 14.6875 45.7725 14.6875Z" fill="black"/>
<path d="M42.8633 27.54C42.6743 27.54 42.4858 27.5306 42.3003 27.5086C40.4367 27.292 38.3547 26.7623 37.0341 24.4793C36.8652 24.2309 35.5897 22.2625 35.3864 19.1969C34.8487 11.0957 33.0378 2.90244 30.6155 2.90244C30.6121 2.90244 30.6075 2.90244 30.6049 2.90244C30.2929 2.90244 30.0388 2.65067 30.0369 2.33831C30.035 2.02444 30.2876 1.76887 30.6011 1.7666C30.606 1.7666 30.6113 1.7666 30.6166 1.7666C32.5233 1.7666 33.9863 4.07918 35.0899 8.83571C36.0607 13.0213 36.4298 17.7668 36.5196 19.1215C36.7119 22.0206 37.9663 23.8307 37.9788 23.8485C37.989 23.8629 37.9984 23.8781 38.0071 23.8932C39.0135 25.6477 40.5037 26.1562 42.4313 26.3803C43.8223 26.5412 45.5628 25.8351 45.5802 25.8279C46.3261 25.5455 46.7925 25.2767 47.2044 25.0393C47.7739 24.7114 48.2657 24.4278 49.1316 24.2786C50.8054 23.9886 52.1378 25.5413 52.1938 25.6076C52.3964 25.8472 52.3661 26.2058 52.1264 26.408C51.8871 26.6101 51.5297 26.5802 51.3268 26.3413C51.3033 26.3141 50.3451 25.2221 49.3243 25.3978C48.6572 25.5129 48.2858 25.7272 47.7712 26.0233C47.3445 26.269 46.8137 26.5749 45.9974 26.8835C45.9391 26.9089 44.3929 27.54 42.8633 27.54Z" fill="black"/>
<path d="M30.6363 45.0002C30.3225 45.0002 30.0684 44.7462 30.0684 44.4323C30.0684 44.1184 30.3225 43.8644 30.6363 43.8644C34.0639 43.8644 36.0884 43.0913 36.1085 43.0837C36.4004 42.9697 36.7294 43.114 36.8437 43.4055C36.9581 43.697 36.815 44.0261 36.5234 44.1408C36.4348 44.176 34.2991 45.0002 30.6363 45.0002Z" fill="black"/>
<path d="M40.2913 33.7053C40.063 33.7053 39.8483 33.5671 39.7613 33.3414C39.6484 33.0487 39.7942 32.7201 40.0869 32.6073L58.2604 25.6029C58.553 25.4901 58.8817 25.6355 58.9945 25.9285C59.1073 26.2212 58.9615 26.5498 58.6689 26.6627L40.4954 33.667C40.428 33.6928 40.3591 33.7053 40.2913 33.7053Z" fill="black"/>
<path d="M60.6108 40.5203C60.5714 40.5203 60.5312 40.5161 60.4907 40.5074L42.0019 36.532C41.6952 36.4661 41.5002 36.164 41.5661 35.8573C41.632 35.5506 41.9345 35.3556 42.2408 35.4215L60.7296 39.3969C61.0363 39.4628 61.2313 39.765 61.1654 40.0716C61.1083 40.3378 60.8728 40.5203 60.6108 40.5203Z" fill="black"/>
</svg>
