<svg width="50" height="45" viewBox="0 0 50 45" fill="none" xmlns="http://www.w3.org/2000/svg">
<path d="M27.385 24.0273C27.3483 23.8967 27.2614 23.786 27.1432 23.7195C27.025 23.6529 26.8852 23.636 26.7545 23.6723C26.6716 23.6956 26.5883 23.7182 26.5048 23.7401C26.4377 23.7552 26.3744 23.7837 26.3186 23.8238C26.2628 23.8639 26.2157 23.9149 26.18 23.9736C26.1444 24.0324 26.1209 24.0977 26.111 24.1657C26.1011 24.2337 26.1051 24.303 26.1226 24.3694C26.1401 24.4359 26.1708 24.4981 26.2129 24.5525C26.255 24.6068 26.3076 24.6521 26.3676 24.6856C26.4275 24.7192 26.4937 24.7403 26.562 24.7477C26.6303 24.7551 26.6994 24.7487 26.7652 24.7288C26.854 24.7054 26.9423 24.6815 27.03 24.657C27.1605 24.6205 27.2711 24.5336 27.3377 24.4156C27.4042 24.2975 27.4213 24.1579 27.385 24.0273Z" fill="black"/>
<path d="M49.1808 27.2037C47.0726 27.7298 44.8636 27.6965 42.7722 27.1072C43.1117 26.0758 43.3053 25.0021 43.3475 23.9172C43.4893 20.089 41.7676 16.9293 38.3683 14.7796C36.7826 13.7885 35.0357 13.0823 33.2067 12.693C32.2333 12.4822 31.2765 12.3378 30.5365 12.2441C30.6959 11.6339 30.8955 11.0349 31.134 10.4511C31.1739 10.36 31.1864 10.2592 31.1699 10.1611C31.1535 10.063 31.1087 9.97179 31.0413 9.89869C30.9738 9.82559 30.8865 9.77375 30.79 9.74951C30.6935 9.72527 30.592 9.72968 30.498 9.7622C28.0494 10.6166 25.8909 12.1433 24.2697 14.1676C22.2434 14.3987 20.6659 15.2172 19.7066 16.5375C19.7028 16.5428 19.6985 16.5489 19.6948 16.5543C19.5946 16.7042 17.3736 19.9463 13.4961 19.5548C14.787 18.3532 17.1258 15.7015 17.707 11.8322C18.4742 6.72707 17.0884 3.03759 16.2058 1.30784C17.8528 1.87778 20.8798 3.51095 22.2228 8.00172C22.2775 8.20661 22.8945 10.335 25.2879 11.7619C25.4045 11.8314 25.5438 11.8517 25.6754 11.8184C25.8069 11.7852 25.9198 11.701 25.9893 11.5844C26.0588 11.4679 26.0791 11.3285 26.0458 11.197C26.0125 11.0655 25.9283 10.9525 25.8118 10.8831C23.7279 9.64097 23.2159 7.75547 23.2115 7.73858C23.2099 7.73158 23.2079 7.72444 23.2058 7.71744C21.1324 0.770603 15.4468 0.0310632 15.2057 0.00337992C15.1072 -0.00799664 15.0075 0.00948673 14.9188 0.0537052C14.83 0.0979236 14.756 0.166973 14.7058 0.25246C14.6555 0.337947 14.6312 0.436191 14.6357 0.53525C14.6403 0.634309 14.6735 0.729918 14.7313 0.810455C14.7617 0.851979 17.6939 5.03337 16.6952 11.6806C15.9635 16.5492 12.0743 19.4228 12.0357 19.4514C11.9568 19.5083 11.8959 19.5865 11.8599 19.6769C11.8239 19.7673 11.8145 19.866 11.8326 19.9615C11.8508 20.0571 11.8958 20.1455 11.9624 20.2164C12.029 20.2872 12.1144 20.3377 12.2086 20.3617C12.8312 20.5234 13.4716 20.6062 14.1148 20.6081C18.0515 20.6081 20.3723 17.373 20.5374 17.1349C21.1744 16.26 22.1301 15.6663 23.3839 15.3608C22.2296 17.0884 21.3693 18.9952 20.8378 21.0039C20.6329 21.8296 20.2871 22.6138 19.8156 23.3218C19.4995 23.7963 19.1217 24.2266 18.6922 24.6015C15.8247 24.6081 12.9602 24.4192 10.1184 24.0361C10.1111 24.035 10.1038 24.0341 10.0965 24.0334C2.90188 23.2666 0.200326 27.1021 0.0888324 27.2658C0.0451937 27.3298 0.0166725 27.403 0.00542128 27.4796C-0.00582993 27.5563 0.000482811 27.6346 0.0238831 27.7084C0.834445 30.268 2.14882 32.6396 3.88966 34.6836C5.75235 37.9458 9.34281 40.5495 12.0351 42.1625C15.0552 43.9716 19.3995 45 22.0571 45C25.1339 44.9928 28.1659 44.2626 30.9086 42.8681C31.8889 43.5264 33.5801 44.3087 36.0878 44.3087C37.2243 44.3003 38.3558 44.1573 39.4587 43.8828C39.5534 43.8597 39.6395 43.8101 39.707 43.7398C39.7745 43.6695 39.8205 43.5815 39.8396 43.4859C39.8588 43.3904 39.8503 43.2914 39.8152 43.2005C39.78 43.1096 39.7197 43.0307 39.6413 42.9729C39.6291 42.9639 38.4133 42.0549 37.4262 40.2318C37.3942 40.1726 37.3509 40.1204 37.2988 40.078C37.2467 40.0356 37.1867 40.0039 37.1223 39.9847C37.0579 39.9654 36.9903 39.9591 36.9235 39.966C36.8566 39.9729 36.7918 39.9929 36.7327 40.0249C36.6736 40.0569 36.6213 40.1002 36.579 40.1524C36.5366 40.2045 36.5049 40.2645 36.4858 40.3289C36.4666 40.3934 36.4603 40.4609 36.4673 40.5278C36.4742 40.5946 36.4943 40.6594 36.5263 40.7185C36.9915 41.5832 37.572 42.3806 38.2521 43.0888C35.21 43.6187 33.1657 42.9776 31.9549 42.3085C36.052 39.9784 38.7673 36.7479 39.91 35.2091C40.1064 35.2194 40.3064 35.2257 40.5103 35.2257C41.7994 35.2375 43.0775 34.9864 44.2664 34.4876C46.7881 33.4059 48.6536 31.1763 49.8106 27.8608C49.8416 27.7717 49.8474 27.6758 49.8273 27.5836C49.8072 27.4914 49.762 27.4065 49.6967 27.3384C49.6314 27.2703 49.5485 27.2215 49.4573 27.1976C49.366 27.1736 49.2699 27.1753 49.1795 27.2025L49.1808 27.2037ZM22.0563 43.9772C20.0614 43.9772 15.4263 43.0016 12.5609 41.285C10.0586 39.7858 6.75534 37.4093 4.95562 34.4776C5.86293 33.74 9.00392 31.7786 14.1649 34.6282C14.2793 34.689 17.012 36.134 21.1097 36.8234C24.8491 37.4523 30.4529 37.5272 36.0329 34.3758C36.8987 34.7102 37.7986 34.9489 38.7163 35.0876C36.5407 37.856 30.744 43.9772 22.0563 43.9772ZM43.871 33.5457C40.2324 35.1114 36.2493 33.3595 36.2095 33.3415C36.1355 33.3075 36.0543 33.2919 35.973 33.2961C35.8917 33.3003 35.8126 33.3241 35.7425 33.3656C30.3657 36.4863 24.9288 36.4229 21.3146 35.8204C17.3729 35.1633 14.6741 33.7403 14.6536 33.7294C11.0961 31.7653 8.38683 31.9355 6.73967 32.424C5.87351 32.6759 5.06368 33.0915 4.35404 33.6483C2.92456 31.8544 1.81746 29.8259 1.08208 27.6532C1.69857 26.9265 4.2541 24.4418 9.9774 25.0487C10.4368 25.1173 18.076 26.2254 24.5311 25.1944C24.6634 25.1712 24.7812 25.0969 24.8592 24.9875C24.9372 24.8781 24.969 24.7424 24.9478 24.6097C24.9266 24.4771 24.8541 24.3581 24.746 24.2784C24.6378 24.1988 24.5026 24.1648 24.3697 24.184C22.9731 24.3981 21.5648 24.5273 20.1525 24.5709C20.3341 24.3546 20.5044 24.129 20.6627 23.895C21.2002 23.0896 21.5946 22.1975 21.8287 21.2579C22.2919 19.4576 24.1873 13.6601 29.785 11.1447C29.059 13.36 27.948 18.3294 31.4146 20.9869C30.7981 21.776 29.8955 22.4425 28.7088 22.9769C28.6475 23.0045 28.5923 23.0438 28.5463 23.0928C28.5003 23.1417 28.4643 23.1992 28.4405 23.262C28.4167 23.3248 28.4055 23.3917 28.4075 23.4589C28.4096 23.526 28.4248 23.5921 28.4524 23.6534C28.48 23.7146 28.5194 23.7698 28.5683 23.8159C28.6172 23.8619 28.6748 23.8978 28.7376 23.9217C28.8004 23.9455 28.8673 23.9567 28.9344 23.9546C29.0016 23.9526 29.0677 23.9373 29.1289 23.9097C31.4396 22.8693 32.8344 21.3569 33.2744 19.4144C33.2762 19.4066 33.2779 19.3992 33.2791 19.391C33.2943 19.3076 33.6205 17.329 31.6448 15.7599C31.5385 15.6755 31.403 15.6368 31.2682 15.6523C31.1334 15.6677 31.0102 15.7361 30.9258 15.8424C30.8414 15.9487 30.8027 16.0841 30.8182 16.219C30.8337 16.3538 30.9021 16.4769 31.0083 16.5613C32.4489 17.7052 32.2912 19.0769 32.2731 19.2039C32.2007 19.5171 32.0948 19.8217 31.9572 20.1123C29.8175 18.3883 29.8733 15.4355 30.3032 13.2465C31.0354 13.337 32.0092 13.4806 32.9971 13.6949C33.0026 13.6963 33.0088 13.6975 33.0145 13.6986C34.7259 14.0702 36.3604 14.734 37.8464 15.6607C40.9466 17.6317 42.4531 20.3968 42.324 23.8792C42.2857 24.8627 42.1109 25.8361 41.8045 26.7715C41.4106 26.6119 41.0273 26.4275 40.6567 26.2195C40.5384 26.1529 40.3985 26.1361 40.2678 26.1726C40.1371 26.2092 40.0263 26.2962 39.9597 26.4145C39.8931 26.5328 39.8763 26.6727 39.9129 26.8035C39.9495 26.9342 40.0365 27.045 40.1548 27.1116C43.4599 28.9686 46.8811 28.6935 48.5092 28.4026C47.4477 30.9484 45.8899 32.6765 43.871 33.5454V33.5457Z" fill="black"/>
<path d="M15.2667 27.946L14.6522 28.1919C14.5895 28.2166 14.5323 28.2535 14.4838 28.3004C14.4354 28.3473 14.3967 28.4033 14.3699 28.4652C14.3432 28.5271 14.329 28.5937 14.3281 28.6611C14.3272 28.7285 14.3397 28.7954 14.3647 28.858C14.3898 28.9206 14.427 28.9777 14.4741 29.0258C14.5213 29.074 14.5776 29.1124 14.6396 29.1387C14.7017 29.1651 14.7683 29.1789 14.8358 29.1794C14.9032 29.1799 14.9701 29.1671 15.0325 29.1417L15.647 28.8957C15.7097 28.871 15.767 28.8342 15.8154 28.7873C15.8639 28.7404 15.9026 28.6844 15.9293 28.6225C15.956 28.5605 15.9702 28.494 15.9711 28.4265C15.972 28.3591 15.9596 28.2922 15.9345 28.2296C15.9095 28.167 15.8723 28.11 15.8251 28.0618C15.7779 28.0136 15.7217 27.9753 15.6596 27.9489C15.5976 27.9226 15.5309 27.9087 15.4635 27.9082C15.3961 27.9077 15.3292 27.9205 15.2667 27.946Z" fill="black"/>
<path d="M25.6662 28.7539C25.7196 28.6307 25.7224 28.4914 25.674 28.3661C25.6256 28.2409 25.5299 28.1397 25.4076 28.0843C25.2853 28.029 25.1461 28.0239 25.0201 28.0703C24.894 28.1166 24.7913 28.2106 24.734 28.3321C24.6867 28.4361 23.5988 30.9027 25.5319 32.9614C25.6282 33.0542 25.7555 33.1078 25.8891 33.1121C26.0228 33.1163 26.1532 33.0707 26.2552 32.9842C26.3042 32.9383 26.3437 32.8831 26.3714 32.8219C26.3991 32.7607 26.4144 32.6946 26.4165 32.6274C26.4187 32.5603 26.4075 32.4933 26.3837 32.4305C26.36 32.3676 26.324 32.3101 26.278 32.2611C24.8232 30.7118 25.6291 28.8375 25.6662 28.7539Z" fill="black"/>
<path d="M28.5827 28.1874C28.6387 28.0638 28.6432 27.923 28.5954 27.7961C28.5475 27.6691 28.4512 27.5663 28.3276 27.5104C28.204 27.4544 28.0632 27.4499 27.9363 27.4977C27.8093 27.5455 27.7066 27.6418 27.6506 27.7655C27.6034 27.8695 26.5154 30.336 28.4487 32.3948C28.5495 32.5022 28.9811 32.5798 29.172 32.4176C29.2219 32.3722 29.2623 32.3173 29.2906 32.256C29.3189 32.1947 29.3346 32.1284 29.3367 32.0609C29.3388 31.9934 29.3274 31.9262 29.303 31.8633C29.2786 31.8003 29.2418 31.7429 29.1948 31.6945C27.7406 30.1459 28.545 28.2729 28.5827 28.1874Z" fill="black"/>
<path d="M31.2149 27.0966C31.2683 26.9734 31.2711 26.8342 31.2227 26.7089C31.1743 26.5837 31.0786 26.4824 30.9563 26.4271C30.834 26.3717 30.6948 26.3667 30.5688 26.413C30.4427 26.4594 30.34 26.5534 30.2827 26.6749C30.2354 26.7789 29.1475 29.2454 31.0806 31.3043C31.1813 31.4117 31.6092 31.5021 31.8037 31.3272C31.8532 31.2815 31.893 31.2264 31.921 31.1651C31.949 31.1039 31.9644 31.0377 31.9666 30.9704C31.9687 30.9031 31.9574 30.836 31.9334 30.7732C31.9093 30.7103 31.873 30.6528 31.8265 30.6041C30.3712 29.0539 31.1787 27.1782 31.2149 27.0966Z" fill="black"/>
</svg>
