<svg width="51" height="45" viewBox="0 0 51 45" fill="none" xmlns="http://www.w3.org/2000/svg">
<path d="M46.0731 20.279C46.0677 20.0255 45.9982 19.7776 45.8709 19.5583C45.5132 18.9351 44.7262 18.5385 43.5337 18.3794C42.8436 18.2873 42.1947 18.1746 41.6051 18.0442C39.7978 17.6419 37.9458 17.4768 36.0959 17.5531C34.5395 17.6116 32.9872 17.7524 31.4456 17.9749C31.119 18.0245 30.7397 18.085 30.3192 18.1523C27.1962 18.651 20.8424 19.6651 16.8959 18.8833C16.3598 17.8711 16.2675 16.9668 16.6218 16.1927C17.391 14.5116 19.9954 13.724 20.9384 13.4892C22.0546 15.1945 23.4735 16.244 25.1591 16.6104C28.2944 17.2918 31.1822 15.3507 31.3036 15.2679C31.3964 15.2045 31.4663 15.113 31.5033 15.0069C31.5403 14.9009 31.5424 14.7857 31.5092 14.6784C31.4761 14.571 31.4094 14.4771 31.319 14.4104C31.2286 14.3437 31.1192 14.3076 31.0069 14.3076C30.722 14.2874 30.4471 14.1938 30.2092 14.0359C29.6843 13.7169 29.255 13.2625 28.9664 12.7203C27.892 10.7407 26.3411 10.0027 25.4502 9.73243C27.2634 5.38965 24.9059 2.55113 24.7997 2.42717L24.7852 2.41162C24.2166 1.79916 24.5364 0.688851 24.5393 0.679519C24.5691 0.58178 24.5698 0.477483 24.5413 0.379363C24.5128 0.281242 24.4563 0.193545 24.3788 0.126979C24.3013 0.0604124 24.206 0.0178571 24.1047 0.00450916C24.0034 -0.00883875 23.9005 0.00759832 23.8083 0.0518132C21.3044 1.25046 19.8133 3.48351 19.4957 6.50929C19.3828 7.6579 19.4233 8.81645 19.6163 9.95436C18.4084 9.87329 17.1958 9.89931 15.9925 10.0321C15.5169 10.0788 6.48794 11.0468 2.48063 18.1828C0.716958 21.3235 0.5521 25.0943 2.03925 28.2694C3.25236 30.8598 5.25788 32.8532 8.00277 34.205C7.20051 35.0544 6.54185 36.0287 6.05262 37.0898C4.35442 40.7689 0.764705 40.2291 0.613844 40.2043C0.502602 40.1855 0.388261 40.203 0.287692 40.2541C0.187124 40.3052 0.105654 40.3873 0.0553038 40.4883C0.0049536 40.5893 -0.0116104 40.7037 0.00805588 40.8148C0.0277221 40.9259 0.082577 41.0278 0.164527 41.1053C1.87097 42.7197 4.04788 43.6707 6.16491 43.5211C10.1819 43.2373 13.4698 39.7671 14.6962 38.2738C15.2012 37.6506 15.762 37.0748 16.3717 36.5535C16.3946 36.5558 16.4176 36.5565 16.4406 36.5558C18.9942 36.393 22.2691 36.5698 22.294 36.5714C22.3804 36.5774 22.4651 36.5816 22.5512 36.5869C21.5729 37.2805 20.7644 38.1866 20.1864 39.2373C19.3415 40.7532 17.1765 43.9186 13.8269 43.9412C14.43 43.4856 14.9015 42.8783 15.1932 42.1811C15.485 41.4839 15.5866 40.7217 15.4877 39.9724C15.4811 39.9029 15.4609 39.8354 15.428 39.7737C15.3951 39.7121 15.3503 39.6577 15.2961 39.6136C15.242 39.5694 15.1796 39.5366 15.1126 39.5168C15.0456 39.4971 14.9753 39.4908 14.9059 39.4985C14.8365 39.5062 14.7693 39.5276 14.7083 39.5615C14.6472 39.5955 14.5935 39.6412 14.5503 39.6961C14.5071 39.751 14.4753 39.8139 14.4567 39.8812C14.4381 39.9485 14.433 40.0189 14.4419 40.0882C14.5412 40.8732 14.3574 41.668 13.9234 42.3298C13.4535 43.0013 12.7656 43.4895 11.9766 43.7113C11.8615 43.7357 11.7579 43.798 11.6823 43.8883C11.6068 43.9785 11.5637 44.0915 11.5599 44.2091C11.5561 44.3267 11.5919 44.4422 11.6615 44.5372C11.7311 44.6321 11.8305 44.7009 11.9438 44.7327C12.5555 44.9073 13.1883 44.9972 13.8244 45C17.7103 45 20.1566 41.4518 21.1056 39.7489C21.6579 38.7362 22.4586 37.8806 23.4326 37.2625C23.8013 37.0353 24.1881 36.8387 24.5891 36.6748C24.5953 36.6722 24.6004 36.6683 24.6065 36.6655C24.771 36.6675 24.9358 36.6698 25.0984 36.6698C35.7666 36.6698 42.2159 32.2596 44.6076 30.2396C45.1766 29.7586 45.8973 29.4942 46.6423 29.493H47.9449C48.491 29.5004 49.0268 29.3438 49.483 29.0436C50.6429 28.2603 50.482 26.997 50.1961 26.3285C50.216 25.5243 50.0882 21.7463 46.0731 20.279ZM13.8831 37.6063C12.9944 38.6883 9.80703 42.2377 6.09881 42.4711C4.66547 42.5613 3.28642 42.1472 1.9831 41.2384C3.48751 41.0603 5.72959 40.3006 7.01237 37.5213C7.02653 37.489 8.45955 34.2736 10.7029 33.7128C10.8372 33.6781 10.9525 33.5916 11.0234 33.4723C11.0943 33.353 11.1153 33.2105 11.0816 33.0759C11.048 32.9412 10.9625 32.8253 10.8438 32.7534C10.7251 32.6815 10.5827 32.6594 10.4478 32.6919C9.87862 32.842 9.34342 33.0996 8.87107 33.4509C6.13769 32.2054 4.15861 30.3141 2.99216 27.8232C1.64841 24.9548 1.8002 21.5436 3.39809 18.6982C7.15328 12.0106 16.0113 11.0874 16.1003 11.079C16.1026 11.079 16.1046 11.0779 16.107 11.0776C16.1093 11.0773 16.1115 11.0776 16.1136 11.0776C16.136 11.0749 18.356 10.8122 20.2018 11.0762C20.2878 11.0884 20.3755 11.0791 20.457 11.0492C20.5386 11.0193 20.6114 10.9696 20.6691 10.9047C20.7269 10.8399 20.7676 10.7617 20.7878 10.6772C20.808 10.5928 20.807 10.5046 20.7849 10.4206C20.4974 9.16484 20.4164 7.87061 20.5449 6.58876C20.7922 4.29847 21.7506 2.58799 23.3981 1.49013C23.3972 2.08729 23.612 2.66468 24.0031 3.116C24.1541 3.29952 26.1916 5.8948 24.2301 9.8724C24.1923 9.94898 24.1737 10.0336 24.176 10.119C24.1782 10.2044 24.2012 10.2879 24.243 10.3624C24.2847 10.4369 24.344 10.5001 24.4157 10.5465C24.4873 10.593 24.5692 10.6213 24.6542 10.629C24.6751 10.6309 26.7509 10.8458 28.0422 13.2229C28.4212 13.9315 28.9841 14.5248 29.6717 14.9406C29.6773 14.9437 29.6829 14.9471 29.6885 14.9505C28.6755 15.4132 27.0386 15.9459 25.376 15.5813C23.883 15.2547 22.6245 14.2593 21.6359 12.622C21.5805 12.5302 21.4983 12.4576 21.4005 12.4138C21.3026 12.37 21.1937 12.3572 21.0883 12.377C20.9154 12.4094 16.8354 13.2032 15.6664 15.7529C15.2775 16.6025 15.2539 17.5307 15.5936 18.5228C15.0605 18.3387 14.5733 18.0422 14.1649 17.6533C13.8572 17.3518 13.6237 16.9831 13.4828 16.5761C13.4615 16.5101 13.4275 16.4489 13.3826 16.3961C13.3376 16.3433 13.2827 16.2998 13.2209 16.2684C13.1591 16.2369 13.0917 16.2179 13.0226 16.2125C12.9534 16.2072 12.8839 16.2155 12.818 16.2372C12.7522 16.2588 12.6912 16.2932 12.6386 16.3385C12.5861 16.3837 12.543 16.4389 12.5119 16.5009C12.4808 16.5629 12.4622 16.6304 12.4573 16.6995C12.4524 16.7687 12.4612 16.8382 12.4832 16.9039C12.6742 17.4653 12.9932 17.9745 13.4151 18.3912C16.4149 21.4385 25.568 19.9767 30.4854 19.1914C30.9027 19.1247 31.2786 19.0647 31.6035 19.0155C33.1078 18.7987 34.6224 18.6616 36.1411 18.6046C37.8996 18.5319 39.66 18.6888 41.3779 19.0712C41.9964 19.2079 42.6748 19.3261 43.3943 19.4221C44.4931 19.5686 44.7923 19.8378 45.0196 20.2726C44.7724 20.3521 44.5172 20.4043 44.2587 20.4282C43.8398 20.469 43.4175 20.4592 43.001 20.3989C40.2525 20.0539 37.4626 20.4971 34.9563 21.6767C33.212 22.5268 31.6789 23.7548 30.4685 25.2714C29.326 26.6749 26.1448 29.9438 21.2949 29.9825C21.1569 29.9853 21.0255 30.0423 20.9292 30.1411C20.8328 30.2399 20.7791 30.3726 20.7796 30.5106C20.7802 30.6486 20.8349 30.7809 20.9321 30.8789C21.0293 30.977 21.1611 31.0329 21.2991 31.0346H21.3034C26.6002 30.9925 30.0481 27.4547 31.2844 25.9357C32.397 24.5397 33.8066 23.4091 35.4108 22.6259C37.7315 21.5327 40.3152 21.122 42.8605 21.4417C43.3612 21.5132 43.8686 21.5241 44.3718 21.4742C44.7693 21.4395 45.1599 21.3484 45.5319 21.2039C48.1009 22.0641 48.858 23.9723 49.0713 25.2196C48.1575 24.6015 47.0861 24.2571 45.9832 24.2269H45.977C40.1351 23.7177 35.2641 28.176 34.8879 28.5299C30.5398 32.03 23.4567 32.9157 23.3861 32.9244C23.3758 32.9257 23.3652 32.9274 23.355 32.9291L19.6869 33.5937C19.4897 33.6235 17.8993 33.9112 15.7721 35.6813C15.0825 36.2613 14.45 36.9059 13.8831 37.6063ZM43.9066 29.4546C42.4962 30.6213 40.9552 31.6206 39.3147 32.4325C39.7449 31.741 40.1001 31.0055 40.3743 30.2386C40.4223 30.1076 40.4163 29.9629 40.3576 29.8364C40.2989 29.7098 40.1923 29.6117 40.0613 29.5637C39.9964 29.54 39.9275 29.5292 39.8585 29.5321C39.7895 29.535 39.7217 29.5514 39.659 29.5805C39.5324 29.6391 39.4344 29.7457 39.3864 29.8767C38.3288 32.7644 36.927 33.4873 36.8919 33.5047C36.8872 33.5069 36.8835 33.5101 36.879 33.5123C35.9137 33.8863 34.9294 34.2093 33.9302 34.48C34.5664 33.6837 35.0472 32.7749 35.3475 31.8009C36.2668 28.9832 37.2605 28.0283 37.4073 27.8987C38.5473 27.1168 39.7781 26.4762 41.0726 25.991C40.7529 26.4536 40.4779 26.9454 40.2511 27.4598C40.2208 27.5225 40.2036 27.5908 40.2005 27.6603C40.1975 27.7299 40.2087 27.7994 40.2335 27.8645C40.2582 27.9296 40.296 27.989 40.3445 28.0389C40.393 28.0889 40.4512 28.1285 40.5155 28.1552C40.6444 28.1942 40.7825 28.1894 40.9083 28.1416C41.0342 28.0937 41.1406 28.0055 41.211 27.8908C42.0941 25.9254 43.0602 25.4707 43.2153 25.4081C44.1035 25.2453 45.0094 25.2016 45.9092 25.2781C45.9283 25.2798 45.9491 25.2803 45.9686 25.2801H45.9827C45.6535 25.8114 45.4064 26.3894 45.2499 26.9945C44.9903 27.9041 44.5314 28.7444 43.9066 29.4546ZM28.657 35.4424C28.9828 35.0644 29.2496 34.6393 29.4485 34.1817C29.451 34.1758 29.4537 34.1696 29.456 34.1637C29.4613 34.1505 29.9681 32.8862 30.6846 32.0902C32.2101 31.4981 33.6567 30.7204 34.992 29.7745C34.7488 30.3299 34.5337 30.8971 34.3475 31.474C33.4134 34.3377 31.7284 34.9665 31.5525 35.0251C30.6347 35.1995 29.6709 35.3421 28.657 35.4429V35.4424ZM17.9179 35.4435C19.0699 34.7609 19.8195 34.6383 19.8435 34.6348C19.8471 34.6348 19.8503 34.6327 19.8539 34.6323C19.8575 34.6318 19.8626 34.6323 19.8671 34.631L23.2234 34.0229C22.8861 34.6072 22.4249 35.1105 21.8723 35.4975C21.1005 35.4648 19.5259 35.4118 17.9179 35.444V35.4435ZM23.3769 35.5776C23.8533 35.0674 24.229 34.4718 24.4843 33.8221C26.0122 33.5557 27.5194 33.1815 28.9945 32.7023C28.8033 33.0472 28.6319 33.4027 28.4813 33.7671C27.931 35.0135 27.0461 35.4701 26.8016 35.5763C25.71 35.6266 24.569 35.6311 23.3766 35.578L23.3769 35.5776ZM48.8944 28.172C48.612 28.3543 48.2816 28.448 47.9456 28.4412H46.6423C46.3519 28.4422 46.0624 28.4734 45.7785 28.5345C45.9806 28.1303 46.1433 27.7075 46.2644 27.2721C46.5599 26.199 46.9745 25.6655 47.1552 25.4724C47.9458 25.6985 48.6606 26.1337 49.2245 26.7321C49.3175 26.9496 49.5801 27.7092 48.894 28.1725L48.8944 28.172Z" fill="black"/>
<path d="M12.9162 14.9414C12.9811 14.965 13.0501 14.9755 13.1191 14.9724C13.1881 14.9693 13.2559 14.9526 13.3185 14.9233C13.381 14.894 13.4372 14.8526 13.4837 14.8015C13.5303 14.7505 13.5663 14.6907 13.5897 14.6257C13.6198 14.5428 13.6522 14.4606 13.6869 14.3792C13.714 14.3156 13.7282 14.2473 13.7289 14.1783C13.7296 14.1092 13.7166 14.0407 13.6908 13.9766C13.6649 13.9125 13.6267 13.8542 13.5784 13.8048C13.53 13.7555 13.4724 13.7162 13.4088 13.6892C13.3452 13.6622 13.2769 13.6479 13.2079 13.6472C13.1388 13.6466 13.0703 13.6595 13.0062 13.6854C12.9421 13.7112 12.8838 13.7494 12.8344 13.7978C12.7851 13.8462 12.7458 13.9038 12.7188 13.9674C12.6765 14.0667 12.6368 14.1672 12.6004 14.2678C12.5769 14.3328 12.5665 14.4017 12.5696 14.4707C12.5728 14.5398 12.5895 14.6075 12.6188 14.67C12.6481 14.7326 12.6895 14.7887 12.7405 14.8353C12.7915 14.8819 12.8512 14.9179 12.9162 14.9414Z" fill="black"/>
<path d="M26.6587 25.3415C26.7689 25.3417 26.8764 25.307 26.9657 25.2423L27.469 24.8799C27.5802 24.7976 27.6545 24.6748 27.6758 24.5381C27.6971 24.4013 27.6637 24.2617 27.5828 24.1495C27.5019 24.0372 27.38 23.9613 27.2436 23.9383C27.1072 23.9152 26.9672 23.9468 26.8539 24.0262L26.3507 24.3886C26.2604 24.4537 26.193 24.5457 26.1582 24.6515C26.1235 24.7573 26.1232 24.8713 26.1575 24.9773C26.1917 25.0832 26.2587 25.1756 26.3487 25.241C26.4388 25.3065 26.5473 25.3417 26.6587 25.3415Z" fill="black"/>
<path d="M17.7017 24.9791C17.9923 24.9791 18.2279 24.7435 18.2279 24.4529C18.2279 24.1623 17.9923 23.9268 17.7017 23.9268C17.4111 23.9268 17.1756 24.1623 17.1756 24.4529C17.1756 24.7435 17.4111 24.9791 17.7017 24.9791Z" fill="black"/>
<path d="M12.0339 29.0128C11.9303 29.0231 11.8321 29.0638 11.7517 29.1298C11.6713 29.1959 11.6123 29.2843 11.5821 29.3839C11.552 29.4834 11.552 29.5897 11.5822 29.6893C11.6125 29.7889 11.6716 29.8772 11.752 29.9432C11.8325 30.0092 11.9307 30.0498 12.0342 30.06C12.1378 30.0702 12.242 30.0495 12.3338 30.0004C12.4255 29.9513 12.5007 29.8762 12.5497 29.7844C12.5988 29.6926 12.6195 29.5884 12.6093 29.4848C12.6025 29.4161 12.5823 29.3493 12.5497 29.2883C12.5171 29.2274 12.4728 29.1734 12.4194 29.1296C12.3659 29.0858 12.3044 29.0529 12.2382 29.0329C12.1721 29.0128 12.1026 29.006 12.0339 29.0128Z" fill="black"/>
<path d="M9.32615 22.9313C9.22261 22.9415 9.12442 22.9823 9.04402 23.0483C8.96362 23.1143 8.9046 23.2027 8.87444 23.3023C8.84427 23.4019 8.84431 23.5082 8.87454 23.6078C8.90478 23.7073 8.96385 23.7957 9.0443 23.8617C9.12475 23.9277 9.22296 23.9683 9.32651 23.9785C9.43006 23.9887 9.5343 23.9679 9.62606 23.9189C9.71782 23.8698 9.79297 23.7946 9.84202 23.7029C9.89106 23.6111 9.9118 23.5069 9.9016 23.4033C9.89484 23.3345 9.8746 23.2677 9.84201 23.2068C9.80943 23.1458 9.76515 23.0919 9.71171 23.048C9.65827 23.0042 9.59671 22.9713 9.53055 22.9513C9.46439 22.9313 9.39493 22.9245 9.32615 22.9313Z" fill="black"/>
</svg>
